<svg version="1.1" id="Layer_1" xmlns="http://www.w3.org/2000/svg" x="0" y="0" viewBox="0 0 112.3 50" xml:space="preserve"><style>.st0{fill:#393e61}.st2{fill:#fff}.st4{fill:#d63834;stroke:#393e61;stroke-width:.5;stroke-linecap:round;stroke-miterlimit:10}.st5{font-family:&apos;Sunset-Serial-Medium-Regular&apos;}.st6{font-size:10.8898px}</style><g id="XMLID_1_"><g id="XMLID_55_"><path id="XMLID_8_" class="st0" d="M53.8 5.4l11.9 13.7-9.4.1-7.4-8.8-38.8 39.3H0L44.2 5 49 .1l.1-.1.2.2z"/></g></g><g id="XMLID_3_"><g id="XMLID_48_"><path id="XMLID_6_" fill="#d63834" d="M56.3 27.2v6.3l-7.7-8.2-24.2 24.4h-6.3l30.8-31z"/></g></g><g id="XMLID_2_"><g id="XMLID_41_"><path id="XMLID_4_" class="st0" d="M56.3 38.5V42l-7.5-7.3-14.9 15h-3.5L47 32.9l1.8-1.8 1.8 1.8z"/></g></g><path id="XMLID_16_" class="st2" d="M48.9 18.7l7.4 8.5v-8l-7.4-8.8-38.8 39.3h8z"/><path id="XMLID_15_" class="st2" d="M48.6 25.3L24.4 49.7h6l18.4-18.6 7.5 7.4v-5z"/><text id="XMLID_13_" transform="translate(71.544 43.944)"><tspan x="0" y="0" class="st4 st5 st6">SUPPLY</tspan></text><text id="XMLID_12_" transform="translate(58.944 28.193)"><tspan x="0" y="0" class="st4 st5 st6">R</tspan></text><text id="XMLID_11_" transform="translate(59.26 48.594)"><tspan x="0" y="0" class="st4 st5 st6">S</tspan></text><path id="XMLID_10_" d="M66.8 34.6c.5 1.2.2 2-.9 2.5-1.3.7-2.7.7-4.1.3-1.4-.4-2.3-1.4-2.3-2.6 0-1.2.6-1.9 2.2-2.4.3-1.6 1.6-2.3 3.1-1.6.4.2.7.6.8 1 .1.2-.3.8-.6.8-.4.1-.8-.2-1.2-.4-.1 0-.1-.1-.3-.1.2.3.4.6.7 1.1-.4.1-.7.1-1.1.2-.2 0-.5 0-.6.2-.4.7-.3 1.5.1 2.1.4.6 1 .9 1.7.8.3 0 .5-.2.7-.4.1-.2.1-.5 0-.7-.1-.1-.4-.2-.6-.2-.2 0-.4.1-.7.2-.3-.7.1-1 .5-1.3.7-.3 1.3-.6 2-.8.2-.1.5-.2.7-.3.2-.2.3-.5.4-.8-.3-.1-.5-.1-.8-.2-.1 0-.1 0-.2-.1.1-.7.5-1 1.3-1 .7 0 1.3.5 1.4 1.2.1.9-.4 1.5-1.1 1.9-.2.2-.6.4-1.1.6z" fill="#d63834" stroke="#393e61" stroke-width=".5" stroke-miterlimit="10"/></svg>