<svg version="1.1" id="Layer_1" xmlns="http://www.w3.org/2000/svg" x="0" y="0" viewBox="0 0 218.4 48" xml:space="preserve"><style>.st1{fill:#54b948}.st3,.st6,.st7{fill:none;stroke:#000}.st3{stroke-linecap:round;stroke-width:.5704}.st6,.st7{stroke-width:.4889}.st7{stroke-linecap:round}.st9{fill:#eb2d2e}.st10{fill:#006c67}</style><g id="XMLID_73_"><path id="XMLID_105_" fill="#9561a8" d="M100.3 11.2l-1.4.3-2.7 1.5-2.3.8-2.1.1-.7.8-.4 3-.3 2.1v3.6l-.4 2.7.1 1.9-1.6 1.9-.2 2.2.1 2.9.6 2.4 2.3.8 2.4-1.1 2-.4 3.4-2.1.7-1.5 4.4-1.1 1.8-3.3 2.8-2 .9-1.6.8-2.2 1.9-1.7.7-2.6-.3-2.7-2.2-2.3z"/><path id="XMLID_104_" class="st1" d="M101.7 5.3l4.9-4.2 3.8-1.1 2.1 1.1 2.2 2.5.8 1.7L117 7l3 3.9-1.9 1.8-2.4 1.6-.6 1.8-2.6-1.2-.4 1-2.5-1-1.5 1.2h-1.4l-1.3-1.3-1.5-.2-1.9.3-.9-.7-.1-3.3-.5-3.1.6-2.3z"/><path id="XMLID_103_" class="st1" d="M98.2 7.4h-4.1l-3.1.9 1 1.2.2 1.3-1.9 1.1-.2 1.1 1.1.6-.1.5 1.8.4 2.2-.2 2-1.3 1.6-1.4 1.7-.4-.2-2.8-.5-1.4z"/><path id="XMLID_102_" d="M99.2 7.5c-4.2-.3-8.6.9-8.5 1.3 0 .2 2 1.5 1.9 1.8-.1.3-2 1.1-2.5 2-.5.9 1.3 1.3 1.3 1.3s-2 2.8-.6 4.3c.7.8-1.5 2.4-.2 4.7.6 1.6-1.7 2.8-.3 5-4.6 3.6-.8 5.8-1.4 6.3-.6.5-1 2.4.2 3.5s3.8.8 5-1.1c2.4.7 5.4-1 5.7-3.5 2 .5 6.4-.3 6.1-4.9 4 0 3.7-2.3 4.3-5.1.6-.1 5-2.4 2.2-7.5 0 0 0-.6.6-.1.4.4 4.2 1.7 2.5-1.6.7 0 4.3-.8 4.3-2.9-.3-.7-1.2-2.8-2.9-3.7.6-1.9-.5-1.4-1.4-2l.1-1.3c-.1-.3-2.2-1.1-3.2-1.8 0 0 1.2-.2.7-1.1-.8-1.4-6.1-1.8-10.4 3.1 0 0-1.4-.1-1.8-3.1-.5-.6-.8.2-.5 2.1.3 1.8-.3 2.5-.4 3.2-.2.8-.8 1.1-.8 1.1z" fill="none" stroke="#000" stroke-width=".978"/><path id="XMLID_101_" class="st3" d="M116.6 7.5s-2.6 1.5-2.7 2.9"/><path id="XMLID_100_" class="st3" d="M115.7 5.6s-4 1.4-5.6 3.5c0 0 1.3 4.2 2.8 6"/><path id="XMLID_99_" class="st3" d="M114.9 4.4s-6.2.5-7.9 3.3c0 0 .5 3.5 2 6.6"/><path id="XMLID_98_" class="st3" d="M111.8 2.1s-5.4 1-7.2 4.3c0 0 2.2 5-.2 7.8"/><path id="XMLID_97_" class="st3" d="M115.4 14.1s-2.3-2.9-2.3-3.5"/><path id="XMLID_96_" class="st3" d="M102.7 4.9c.2 1.1 6.2 5.7 16.4 6.3"/><path id="XMLID_95_" d="M100.1 7c.2.6 1.1 5.5.9 7.8 0 .5 2.5.2 3.3-.3.3-.3 3.3 2.5 3.3 2.5.9-1.4.9-1.8 1.3-2.2.6-.6 1.9 1.3 3.5.7" fill="none" stroke="#000" stroke-width=".978" stroke-linecap="square" stroke-linejoin="bevel"/><path id="XMLID_94_" d="M102.5 4.7h0l-2.1-2.9s-.1 6.7.1 6c.3-.8.9-.9 1.4-1.3.4-.4.7-.9 1.2-1l-.6-.8z" stroke="#000" stroke-width=".57"/><path id="XMLID_93_" class="st6" d="M101 11c-.6.5-2.1.4-2.5.7-.9.9-1.3 1.3-2.5 2.4-.8.7-3.1-.1-4.2 0"/><path id="XMLID_92_" class="st6" d="M100 7.8c-2.5 1.2-5.4 6.1-9 5.8"/><path id="XMLID_90_" class="st6" d="M95.1 12c.8.4.8 1.2.9 2.2"/><path id="XMLID_89_" class="st6" d="M98.6 11.6c0-.4-.2-2.3-.7-2.3"/><path id="XMLID_88_" class="st7" d="M96.6 10.3c-1.8 0-1.8.1-2.7.2"/><path id="XMLID_87_" class="st7" d="M95.5 14.6c.1 1.6 0 1 .2 1.8s.1.8.8 1.6c.8.8 2.4.7 3.2.4.8-.3 2-2 2-2.6"/><path id="XMLID_86_" class="st7" d="M95.7 16.4c-.9-.3-2.2.4-4.4 2.1"/><path id="XMLID_85_" class="st7" d="M91 23.2c2.6 1.1 6.6-2.3 6.7-4.5"/><path id="XMLID_84_" class="st7" d="M101.1 17.4c.9 5.9 6.9 3.5 6.6.1"/><path id="XMLID_83_" class="st7" d="M110.5 22.7s-2 .7-2.8-.4c-.8-1.1-.9-1.6-1-2.3"/><path id="XMLID_82_" class="st7" d="M107.6 22.5c-.8.8-.8.4-1.3 1.8s-1.1 2.6-.9 3.6"/><path id="XMLID_81_" class="st7" d="M106.6 23.5c-2.7-1.8-4.2-.3-4.2-.3-1 1.3-2 1.5-2.2 1.8-1.2 1.3-.3 2.4-.2 2.7 1 1.3 3.8 2.1 5.3-.2"/><path id="XMLID_80_" class="st7" d="M100 25c-1.8.5-4.7-.4-5-2.6"/><path id="XMLID_79_" class="st7" d="M95.7 24c-1.3 1.4-2.4 1.7-2.9 3.7-.4 1.4 1 3 1.6 3.2 0 0 2.5 1.4 4.3-.2 1.3-1.1 1.2-1.4 1.8-2.4"/><path id="XMLID_78_" class="st7" d="M99.6 32.8c-.2-1-.7-1.7-.8-2.1"/><path id="XMLID_77_" class="st7" d="M93.9 36.2s-1.2-.7-.9-1.9c.1-.5 1.4-1.8 1.4-3.4"/><path id="XMLID_76_" class="st7" d="M93 34.3c-1.4.5-2.6.5-3.7-.2"/><path id="XMLID_75_" class="st7" d="M90.6 28c.7 0 1.7-.1 2 .1"/><path id="XMLID_74_" d="M103.3 21.2c-.4-.1-.8-.3-.8-.3.2.8.6 1 .2 1.8-.3.7-.1-.2.5-.3.6-.1.7.1 1 .2.4.1-.8-.5.1-1.3-.4.1-.7 0-1-.1z" stroke="#000" stroke-width=".489" stroke-linecap="round"/></g><g id="XMLID_48_"><g id="XMLID_60_"><path id="XMLID_71_" d="M7.4 13.2c0-1.5 0-2.9-.1-3.5-1.5 0-4.9.2-7.2.5.1-.6.2-1.1.2-1.7 0-.6-.1-1.1-.2-1.7 3.6.1 5.4.2 10.3.2s6.7-.1 10-.2c-.1.6-.2 1.1-.2 1.7 0 .6.1 1.1.2 1.7-2.1-.3-5.5-.5-7-.5-.1.6-.1 2-.1 3.5v9.9c0 4.4.1 7.5.3 11-.9-.1-1.9-.2-3.2-.2-1.4-.1-2.5 0-3.4.1.2-3.5.3-6.5.3-11v-9.8z"/><path id="XMLID_68_" d="M28.2 14.4c6.1 0 9.7 3.8 9.7 9.7 0 6.4-4 10.5-9.7 10.5-4.7 0-9.7-2.6-9.7-9.6 0-7.2 4.7-10.6 9.7-10.6zm.1 1.7c-2.4 0-3.9 2.8-3.9 8.8 0 4.4.9 7.8 3.9 7.8 2.5 0 3.8-3.2 3.8-9.3-.1-4.5-1.2-7.3-3.8-7.3z"/><path id="XMLID_66_" d="M51.7 15.1c-.1.4-.1.7-.1 1.1 0 .3 0 .7.1 1l-3.5-.2c-.2 2.4-.3 6.7-.3 8.8 0 5.5.4 6.4 2.2 6.4 1 0 1.3-.1 1.8-.4v1.6c-1 .6-2.8 1-4.3 1-3.3 0-5-2.1-5-6.1 0-3 .3-8 .3-11.3h-2.8c.1-.3.1-.7.1-1 0-.4 0-.7-.1-1.1l2.8.1c0-1.7 0-2.8-.2-4.9 1.8-.8 3.6-1.6 5.4-2.5l.4.3c-.2 1.7-.4 4.6-.4 7l3.6.2z"/><path id="XMLID_63_" d="M54.7 17.1c2.1-1.8 4.9-2.8 7.4-2.8 4.2 0 7.2 1.8 7.2 6.4 0 3.4-.1 6.1-.1 9 0 2.5.7 2.7 2.3 2.7v.9c-1.5.8-2.4 1.1-3.6 1.1-1.9 0-3.1-1.1-3.8-2.9-1.2 1.7-2.7 2.9-5.1 2.9-4 0-5.7-2.7-5.7-5.2 0-3.4 2.3-4.9 5.9-5.8 4.4-1.1 4.8-1.4 4.8-2.8 0-1.9-1.4-3.4-3.8-3.4-1.8 0-4 1.1-4.7 2.2h-.3l-.5-2.3zm9.4 6.6c-2.3 1.3-5.2 1.1-5.2 5.1 0 1.9.9 3 2.3 3 1.7 0 2.9-1.3 2.9-3.9-.1-2.3 0-3.3 0-4.2z"/><path id="XMLID_61_" d="M75 17.8c0-5.2-.1-9.2-.3-13.7.7.1 1.8.2 3 .2 1.1 0 2.3-.1 3-.2-.2 4.5-.3 8.5-.3 13.7v2.6c0 5.2.1 9.2.3 13.7-.7-.1-1.8-.2-3-.2-1.1 0-2.3.1-3 .2.2-4.5.3-8.5.3-13.7v-2.6z"/></g><g id="XMLID_49_"><path id="XMLID_58_" d="M140.6 14.6c-1.9 5.4-5.1 13.8-6.8 19.4-.7-.1-1.3-.2-2-.2s-1.4.1-2.1.2c-1.7-6.9-7.4-25.6-7.9-27.3 1.1.1 2.3.2 3.3.2 1.1 0 2.1-.1 3.2-.2 1.6 6.8 3.7 14.4 5.2 20h.1c2.3-6.6 5.7-16.3 6.8-20 .7.1 1.3.2 2 .2s1.3-.1 2-.2c.7 3.5 4.8 14.8 6.2 20h.1c2-6.6 5.1-16.8 5.9-20 .6.1 1.1.2 1.7.2.6 0 1.2-.1 1.8-.2-1.1 3-6.5 18.5-9 27.3-.7-.1-1.3-.2-2-.2s-1.4.1-2.1.2c-1.8-6.5-3.9-12.9-6.4-19.4z"/><path id="XMLID_55_" d="M165.1 6.2c1.7 0 3.1 1.4 3.1 3.1 0 1.7-1.4 3.1-3.1 3.1-1.7 0-3.1-1.4-3.1-3.1 0-1.7 1.3-3.1 3.1-3.1zm-2.7 17.4c0-3.2-.1-6-.3-8.8.7.1 1.7.2 3 .2 1.2 0 2.3-.1 3-.2-.2 2.8-.3 5.6-.3 8.8v1.6c0 3.2.1 6 .3 8.8-.7-.1-1.7-.2-3-.2-1.2 0-2.3.1-3 .2.2-2.8.3-5.6.3-8.8v-1.6z"/><path id="XMLID_53_" d="M178.2 17.8c1.5-2.1 3.6-3.5 6.1-3.5 4 0 6.2 2.2 6.2 7.3 0 2.7-.2 4.6-.2 6.6 0 1.7.1 3.7.2 5.7-.7-.1-1.8-.2-3-.2-1.1 0-2.3.1-3 .2.4-2.8.4-6.6.4-11.4 0-3.3-1.2-4.8-3.2-4.8-2.4 0-3.4 2.2-3.4 5.8v1.6c0 3.2.1 6 .3 8.8-.7-.1-1.7-.2-3-.2-1.2 0-2.3.1-3 .2.2-2.8.3-5.6.3-8.8v-1.6c0-3.2-.1-6-.3-8.8.9.1 1.9.2 2.8.2.9 0 1.9-.1 2.9-.2l-.1 3.1z"/><path id="XMLID_50_" d="M199.7 24.4c0 4.3 1.7 7.5 5.3 7.5 1.8 0 3.4-.6 4.9-1.8l.5.4-.9 2.2c-1.3 1-3 1.8-6 1.8-5.1 0-9.6-3.1-9.6-10 0-6.8 3.9-10.2 9.2-10.2 5.1 0 8.1 3.3 8.1 8.8v1.3h-11.5zm6.1-1.7c-.1-4-.9-6.5-2.9-6.5-2.3 0-3.1 3.4-3.2 6.5h6.1z"/></g></g><g id="XMLID_23_"><g id="XMLID_35_"><path id="XMLID_46_" class="st9" d="M8.6 12.3c0-1.5 0-2.9-.1-3.5-1.5 0-4.9.3-7.2.6.1-.6.2-1.1.2-1.7 0-.6-.1-1.1-.2-1.7 3.6 0 5.3.1 10.3.1 4.9 0 6.7-.1 10-.2-.1.6-.2 1.1-.2 1.7 0 .6.1 1.1.2 1.7-2.1-.3-5.5-.5-7-.5-.1.6-.1 2-.1 3.5v9.9c0 4.4.1 7.5.3 11-.9-.1-1.9-.2-3.2-.2-1.3 0-2.4.1-3.2.2.2-3.5.3-6.5.3-11v-9.9z"/><path id="XMLID_43_" class="st9" d="M29.5 13.5c6.1 0 9.7 3.8 9.7 9.7 0 6.4-4 10.5-9.7 10.5-4.7 0-9.7-2.6-9.7-9.6 0-7.1 4.7-10.6 9.7-10.6zm0 1.8c-2.4 0-3.9 2.8-3.9 8.8 0 4.4.9 7.8 3.9 7.8 2.5 0 3.8-3.2 3.8-9.3 0-4.5-1.1-7.3-3.8-7.3z"/><path id="XMLID_41_" class="st9" d="M53 14.2c-.1.4-.1.7-.1 1.1 0 .3 0 .7.1 1l-3.5-.1c-.2 2.4-.3 6.7-.3 8.8 0 5.5.4 6.4 2.2 6.4 1 0 1.3-.1 1.8-.4v1.6c-1 .6-2.8 1-4.3 1-3.3 0-5-2.1-5-6.1 0-3 .3-8 .3-11.3h-2.8c.1-.3.1-.7.1-1 0-.4 0-.7-.1-1.1l2.8.1c0-1.7 0-2.8-.2-4.9 1.8-.8 3.6-1.6 5.4-2.5l.4.3c-.2 1.7-.4 4.6-.4 7l3.6.1z"/><path id="XMLID_38_" class="st9" d="M55.9 16.3c2.1-1.8 4.9-2.8 7.4-2.8 4.2 0 7.2 1.8 7.2 6.4 0 3.4-.1 6.1-.1 9 0 2.5.7 2.7 2.3 2.7v.9c-1.5.8-2.4 1.1-3.6 1.1-1.9 0-3.1-1.1-3.8-2.9-1.2 1.7-2.7 2.9-5.1 2.9-4 0-5.7-2.7-5.7-5.2 0-3.4 2.3-4.9 5.9-5.8 4.4-1.1 4.8-1.4 4.8-2.8 0-1.9-1.4-3.4-3.8-3.4-1.8 0-4 1.1-4.7 2.2h-.3l-.5-2.3zm9.4 6.6C63 24.2 60.1 24 60.1 28c0 1.9.9 3 2.3 3 1.7 0 2.9-1.3 2.9-3.9v-4.2z"/><path id="XMLID_36_" class="st9" d="M76.3 16.9c0-5.2-.1-9.2-.3-13.7.7.1 1.8.2 3 .2 1.1 0 2.3-.1 3-.2-.2 4.5-.3 8.5-.3 13.7v2.6c0 5.2.1 9.2.3 13.7-.7-.1-1.8-.2-3-.2-1.1 0-2.3.1-3 .2.2-4.5.3-8.5.3-13.7v-2.6z"/></g><g id="XMLID_24_"><path id="XMLID_33_" class="st9" d="M141.9 13.8c-1.9 5.4-5.1 13.8-6.8 19.4-.7-.1-1.3-.2-2-.2s-1.4.1-2.1.2c-1.7-6.9-7.4-25.6-7.9-27.3 1.1.1 2.3.2 3.3.2 1.1 0 2.1-.1 3.2-.2 1.6 6.8 3.7 14.4 5.2 20h.1c2.3-6.6 5.7-16.3 6.8-20 .7.1 1.3.2 2 .2s1.3-.1 2-.2c.7 3.5 4.8 14.7 6.2 20h.1c2-6.6 5.1-16.8 5.9-20 .6.1 1.1.2 1.7.2.6 0 1.2-.1 1.8-.2-1.1 3-6.5 18.5-9 27.3-.7-.1-1.3-.2-2-.2s-1.4.1-2.1.2c-1.8-6.5-4-13-6.4-19.4z"/><path id="XMLID_30_" class="st9" d="M166.3 5.4c1.7 0 3.1 1.4 3.1 3.1 0 1.7-1.4 3.1-3.1 3.1-1.7 0-3.1-1.4-3.1-3.1 0-1.8 1.4-3.1 3.1-3.1zm-2.6 17.4c0-3.2-.1-6-.3-8.8.7.1 1.7.2 3 .2 1.2 0 2.3-.1 3-.2-.2 2.8-.3 5.6-.3 8.8v1.6c0 3.2.1 6 .3 8.8-.7-.1-1.7-.2-3-.2-1.2 0-2.3.1-3 .2.2-2.8.3-5.6.3-8.8v-1.6z"/><path id="XMLID_28_" class="st9" d="M179.5 17c1.5-2.1 3.6-3.5 6-3.5 4 0 6.2 2.2 6.2 7.3 0 2.7-.2 4.6-.2 6.6 0 1.7.1 3.7.2 5.7-.7-.1-1.8-.2-3-.2-1.1 0-2.3.1-3 .2.4-2.8.4-6.6.4-11.3 0-3.3-1.2-4.8-3.2-4.8-2.4 0-3.4 2.2-3.4 5.8v1.6c0 3.2.1 6 .3 8.8-.7-.1-1.7-.2-3-.2-1.2 0-2.3.1-3 .2.2-2.8.3-5.6.3-8.8v-1.6c0-3.2-.1-6-.3-8.8.9.1 1.9.2 2.8.2.9 0 1.9-.1 2.9-.2v3z"/><path id="XMLID_25_" class="st9" d="M201 23.6c0 4.3 1.7 7.5 5.3 7.5 1.8 0 3.4-.6 4.9-1.8l.5.4-.9 2.2c-1.3 1-3 1.8-6 1.8-5.1 0-9.6-3.1-9.6-10 0-6.8 3.9-10.2 9.2-10.2 5.1 0 8.1 3.3 8.1 8.8v1.3H201zm6.1-1.8c-.1-4-.9-6.5-2.9-6.5-2.3 0-3.1 3.4-3.2 6.5h6.1z"/></g></g><g id="XMLID_8_"><path id="XMLID_19_" class="st10" d="M125.1 43.9c-.3.5-.7.9-1.1 1.4.1.1.4.4 1 .9l-1.8 1.8c-.2-.2-.5-.4-.9-.7-.1-.1-.2-.2-.3-.2-.6.4-1.2.7-1.8.8-.5.1-1.1.2-1.9.2-1.5 0-2.7-.3-3.4-.9-.7-.6-1.1-1.4-1.1-2.2 0-1.6 1.1-2.8 3.2-3.6-.4-.7-.6-1.4-.6-2 0-.9.4-1.6 1.1-2.1.7-.5 1.6-.7 2.7-.7s1.9.2 2.6.7c.6.5 1 1.1 1 1.8 0 .4-.1.8-.3 1.2-.2.3-.5.6-.9.9-.4.3-.8.5-1.4.8l-.4.2 1.4 1.7c.2-.3.5-.6.8-.9.1-.1.1-.2.2-.2l1.9 1.1zm-4.8 1.3c-.8-.8-1.5-1.6-1.9-2.2-.9.5-1.4 1-1.4 1.6 0 .2.1.4.2.6.1.2.3.4.5.5.2.1.5.2.8.2.5.1 1.1-.2 1.8-.7zm-.6-5c.5-.2.9-.5 1.1-.8s.4-.5.4-.7c0-.2-.1-.3-.3-.5-.2-.1-.4-.2-.6-.2-.3 0-.6.1-.8.3-.2.2-.3.5-.3.7.1.3.2.7.5 1.2z"/><path id="XMLID_17_" class="st10" d="M146.7 36.5l-2.4 11.3h-2.9l2.1-8.6-4.2 8.6h-2.6l-.5-8.6-1.6 8.6h-2.9l2.4-11.3h4.2l.4 7.2 3.6-7.2h4.4z"/><path id="XMLID_14_" class="st10" d="M154 36.3c1.7 0 3 .5 3.8 1.4.8.9 1.2 2.1 1.2 3.4 0 .5-.1 1.1-.2 1.8s-.4 1.4-.9 2.1c-.4.7-1 1.3-1.7 1.8s-1.3.8-2 1c-.6.2-1.3.3-2 .3-1.6 0-2.9-.4-3.8-1.2-.9-.8-1.4-2-1.4-3.4 0-.8.1-1.5.3-2.3.2-.7.6-1.4 1-2.1.4-.6 1-1.2 1.6-1.6.6-.4 1.3-.7 1.9-.9.9-.2 1.5-.3 2.2-.3zm-1.5 9.1c.7 0 1.2-.3 1.7-.8s.8-1.1 1-1.9c.2-.8.3-1.3.3-1.7 0-.7-.2-1.3-.5-1.6-.4-.4-.8-.6-1.4-.6-.6 0-1.2.2-1.6.7-.5.5-.8 1.1-1 1.9-.2.8-.3 1.4-.3 2 0 .6.2 1.1.5 1.4.2.4.7.6 1.3.6z"/><path id="XMLID_11_" class="st10" d="M161.9 36.5h6.4c1.1 0 1.9.3 2.4.9.5.6.8 1.3.8 2.1 0 .9-.3 1.7-.8 2.3-.5.7-1.4 1.1-2.6 1.3.7.6 1.6 2.2 2.5 4.7h-3.7c-.3-.8-.7-1.7-1.1-2.7-.4-1-.7-1.5-.9-1.7-.2-.2-.5-.2-.7-.2h-.2l-1 4.6h-3.5l2.4-11.3zm2.5 4.6h.7c1.1 0 1.8-.1 2.1-.2s.6-.3.7-.5c.2-.2.2-.5.2-.7 0-.3-.1-.5-.3-.7-.2-.2-.6-.2-1.2-.2h-1.8l-.4 2.3z"/><path id="XMLID_9_" class="st10" d="M183.3 36.5l-.5 2.4H177l-.4 1.8h5.5l-.5 2.3h-5.5l-.5 2.2h6.2l-.6 2.6h-9.7l2.4-11.3h9.4z"/></g><g id="XMLID_2_"><path id="XMLID_3_" d="M216 13.5c1.3 0 2.4 1.1 2.4 2.4 0 1.3-1 2.4-2.4 2.4-1.3 0-2.4-1.1-2.4-2.4 0-1.4 1.1-2.4 2.4-2.4zm0 .4c-1 0-1.8.9-1.8 1.9 0 1.1.8 1.9 1.8 1.9s1.8-.8 1.8-1.9c0-1-.8-1.9-1.8-1.9zm-.4 3.3h-.6v-2.6c.2 0 .4-.1.8-.1.5 0 .7.1.9.2.1.1.2.3.2.6s-.2.5-.5.6c.2 0 .4.3.4.6.1.4.1.6.1.7h-.6c-.1-.1-.1-.3-.2-.7 0-.3-.2-.4-.5-.4h-.3v1.1zm0-1.5h.3c.3 0 .6-.1.6-.4 0-.2-.2-.4-.5-.4h-.3v.8z"/></g></svg>