<?xml version="1.0" encoding="utf-8"?>
<!-- Generator: Adobe Illustrator 19.0.0, SVG Export Plug-In . SVG Version: 6.00 Build 0)  -->
<svg version="1.1" id="Layer_1" xmlns="http://www.w3.org/2000/svg" xmlns:xlink="http://www.w3.org/1999/xlink" x="0px" y="0px"
	 viewBox="0 0 483.1 482.5" style="enable-background:new 0 0 483.1 482.5;" xml:space="preserve">
<style type="text/css">
	.st0{fill:none;stroke:#FFFFFF;stroke-width:48;stroke-miterlimit:10;}
	.st1{fill:#FFFFFF;}
</style>
<g>
	<rect x="24" y="24.2" class="st0" width="435.2" height="434.4"/>
	<g>
		<path class="st1" d="M190.9,82.7V137h-53.3v262.9h-53V137V82.7H190.9z"/>
		<path class="st1" d="M399.3,399.8h-64L232.5,234.1h26.7H293c6.9,0,13.4-1,19.6-3c6.2-2,11.6-4.9,16.2-8.9c4.6-4,8.2-9,10.9-15.1
			c2.7-6.1,4-13.4,4-21.8c0-8.2-1.4-15.3-4.2-21.4c-2.8-6.1-6.5-11.1-11.2-15.1c-4.7-4-10.1-6.9-16.2-8.9c-6.1-2-12.4-3-19.1-3
			h-33.9h-53V82.3h87.3c12.7,0,25,1.3,36.8,4c11.8,2.7,22.8,8.4,33,17.2c10.7,9.3,18.9,20.7,24.8,34.1c5.8,13.4,8.8,27.8,8.8,43
			c0,13.6-2.4,27.3-7,41.1c-4.7,13.9-11.5,25.4-20.4,34.8c-7.4,7.9-14.7,13.6-21.9,17.2c-7.2,3.5-15.7,6.6-25.3,9.1L399.3,399.8z"/>
	</g>
</g>
<g>
</g>
<g>
</g>
<g>
</g>
<g>
</g>
<g>
</g>
<g>
</g>
</svg>
