<?xml version="1.0" encoding="utf-8"?>
<!-- Generator: Adobe Illustrator 19.0.0, SVG Export Plug-In . SVG Version: 6.00 Build 0)  -->
<svg version="1.1" id="Layer_1" xmlns="http://www.w3.org/2000/svg" xmlns:xlink="http://www.w3.org/1999/xlink" x="0px" y="0px"
	 viewBox="0 0 343.5 130.5" style="enable-background:new 0 0 343.5 130.5;" xml:space="preserve">
<style type="text/css">
	.st0{fill:#B6944B;}
	.st1{fill:none;stroke:#B6944B;stroke-miterlimit:10;}
</style>
<g id="XMLID_1_">
	<path id="XMLID_91_" class="st0" d="M8.9,27.8c0,0,0.3-0.1,0.8-0.3c0.5-0.2,1.4-0.6,2.6-1c2.2-0.8,5.6-1.8,9.9-2.8
		c4.3-1,9.5-2,15.6-2.9c3-0.5,6.2-1,9.6-1.6c1.7-0.3,3.4-0.6,5.2-0.8c1.8-0.3,3.6-0.5,5.4-0.8c3.7-0.5,7.6-1.1,11.6-1.7
		c4-0.5,8.1-1,12.4-1.5c2.1-0.3,4.3-0.5,6.5-0.8c2.2-0.2,4.4-0.5,6.6-0.7c4.5-0.4,9.1-1,13.7-1.4c4.7-0.4,9.4-0.8,14.2-1.2
		c4.8-0.4,9.7-0.6,14.6-0.9c2.5-0.1,4.9-0.3,7.4-0.4c2.5-0.1,5-0.2,7.4-0.3c5-0.2,10-0.5,14.9-0.5c5-0.1,10-0.3,15-0.3
		c5,0,9.9,0,14.8,0c9.8,0.1,19.5,0.2,28.8,0.7c9.4,0.3,18.4,0.9,26.9,1.4c4.3,0.3,8.4,0.7,12.5,1c2,0.2,4,0.3,5.9,0.5
		c1.9,0.2,3.8,0.4,5.7,0.6c7.4,0.7,14.3,1.4,20.3,2.2c6,0.7,11.3,1.3,15.6,2c8.6,1.2,13.6,1.9,13.6,1.9l-0.1,1c0,0-4.9-0.7-13.6-1.8
		c-4.3-0.6-9.6-1.2-15.6-1.9c-6-0.7-12.9-1.3-20.3-2c-1.9-0.2-3.8-0.3-5.7-0.5c-1.9-0.1-3.9-0.3-5.9-0.4c-4-0.3-8.2-0.6-12.4-0.9
		c-8.6-0.4-17.6-1-26.9-1.2c-9.3-0.4-19-0.4-28.8-0.5c-4.9,0-9.8,0.1-14.8,0.1c-5,0.1-9.9,0.3-14.9,0.4c-5,0.1-10,0.4-14.9,0.6
		c-2.5,0.1-4.9,0.2-7.4,0.4c-2.5,0.1-4.9,0.3-7.4,0.5c-4.9,0.4-9.7,0.6-14.5,1c-4.8,0.4-9.5,0.8-14.2,1.2c-4.6,0.4-9.2,1-13.7,1.4
		c-2.2,0.2-4.4,0.5-6.6,0.7c-2.2,0.3-4.3,0.6-6.4,0.8c-4.2,0.6-8.4,1.1-12.4,1.6c-4,0.6-7.8,1.2-11.5,1.7c-1.8,0.3-3.7,0.5-5.4,0.8
		c-1.8,0.3-3.5,0.6-5.2,0.9c-3.4,0.6-6.5,1.1-9.5,1.6c-6,1-11.2,2-15.3,3c-4.2,1-7.4,2-9.6,2.8c-1.1,0.4-1.9,0.7-2.4,0.9
		c-0.6,0.2-0.8,0.3-0.8,0.3L8.9,27.8z"/>
</g>
<g id="XMLID_2_">
	<path id="XMLID_89_" class="st0" d="M75.8,15.8c0,0,0.5,0.7,0,1.3c-0.3,0.7-0.8,1.6-1.5,2.8c-0.6,1.2-1.4,2.7-2.2,4.4
		c-0.8,1.7-1.8,3.6-2.8,5.8c-1,2.1-2.1,4.4-3.2,6.9c-1.1,2.4-2.2,5-3.4,7.7c-1.1,2.7-2.3,5.5-3.5,8.4c-1.2,2.9-2.3,5.8-3.4,8.7
		c-1.1,2.9-2.2,5.9-3.2,8.8c-1.1,2.9-2,5.8-3,8.5c-0.9,2.8-1.8,5.5-2.6,8.1c-0.8,2.6-1.6,5-2.2,7.3c-0.7,2.2-1.3,4.3-1.8,6.2
		c-0.5,1.8-1,3.4-1.3,4.8c-0.7,2.7-1.1,4.2-1.1,4.2l-1-0.2c0,0,0.4-1.5,1-4.2c0.3-1.3,0.7-3,1.2-4.8c0.5-1.9,1-4,1.6-6.2
		c0.6-2.3,1.3-4.7,2-7.3c0.7-2.6,1.6-5.3,2.4-8.1c0.9-2.8,1.8-5.7,2.8-8.6c1-2.9,2-5.9,3.1-8.9c1.1-2.9,2.2-5.9,3.3-8.8
		c1.1-2.9,2.3-5.7,3.4-8.4c1.2-2.7,2.3-5.3,3.4-7.8c1.1-2.5,2.1-4.8,3.1-6.9c1-2.1,1.9-4.1,2.8-5.8c0.8-1.7,1.6-3.2,2.2-4.5
		c0.6-1.2,1.1-2.2,1.4-2.8c0.2-0.7,1-0.7,1-0.7L75.8,15.8z"/>
</g>
<path id="XMLID_3_" class="st1" d="M64.8,81.2c-0.1-1-0.6-1.9-1.3-2.7c-1.9,1.8-3.2,4.2-3.7,6.7c0.6,0.4,1.5-0.1,1.9-0.8
	c0.4-0.7,0.7-1.5,1.3-1.9c0.6-0.3,1.3-0.3,1.9-0.3c5.8,0.1,11.5-3.3,14.2-8.4c-5.3,13.6-10.7,27.2-16,40.8c-0.1,0.3-0.2,0.6-0.4,0.9
	"/>
<g id="XMLID_4_">
	<path id="XMLID_87_" class="st0" d="M79.4,82.4l1.4-1.3l1.3-1.3l1.3-1.4l1.2-1.5l1.1-1.5l1-1.6l1-1.6l0.9-1.7l0.8-1.7l0.7-1.8
		l0.6-1.8l0.5-1.8l0.4-1.8c0.1-0.6,0.2-1.2,0.4-1.9c0.1-0.6,0.2-1.3,0.3-1.9c0.1-0.6,0.2-1.3,0.3-1.9l0,0l0.9,0.4l-1.1,1.2l-1,1.3
		l-0.9,1.3l-0.9,1.4l-0.8,1.4l-0.7,1.5l-0.6,1.5l-0.6,1.5l-0.5,1.6L86,70.4L85.7,72l-0.2,1.6l-0.2,1.6l-0.1,1.6l0,1.6l0.1,1.6
		l-0.9-0.3c0.3-0.3,0.5-0.8,0.4-1.2l0,0l0-0.5l0.5-0.1c1.4-0.2,2.9-0.4,4.3-0.5c1.4-0.2,2.8-0.4,4.3-0.5l4.3-0.6l4.3-0.7
		c2.8-0.5,5.7-1,8.5-1.6l8.5-1.7c2.8-0.6,5.7-1.1,8.6-1.5l4.3-0.6l4.3-0.5l4.4-0.3l4.4-0.1l4.4,0.1l4.4,0.4l-0.1,1l-4.3-0.2l-4.3,0
		l-4.3,0.2l-4.3,0.4l-4.3,0.6l-4.3,0.7l-4.2,0.8l-4.2,0.8l-8.5,1.7c-2.8,0.6-5.7,1.1-8.5,1.6l-4.3,0.7l-4.3,0.5
		c-1.5,0.1-2.9,0.2-4.4,0.3c-1.5,0-2.9,0-4.4-0.1l0.5-0.5l0,0c0,0.7-0.2,1.4-0.7,1.9l-0.8,0.8l-0.1-1.1l-0.1-1.7l0-1.7l0.1-1.7
		l0.2-1.7l0.2-1.7l0.3-1.7l0.4-1.6l0.5-1.6l0.6-1.6l0.7-1.6l0.7-1.5l0.8-1.5l0.9-1.4l1-1.4l1-1.3l1.1-1.3l0.8-1l0,1.3l0,0
		c0.1,0.7,0.1,1.3,0.1,2c0,0.7,0,1.3-0.1,2c-0.1,0.7-0.2,1.3-0.3,2l-0.4,2l-0.6,1.9l-0.7,1.9l-0.8,1.8l-0.9,1.8l-1,1.8l-1.1,1.7
		l-1.2,1.6l-1.2,1.6l-1.3,1.5l-1.4,1.4l-1.5,1.3L80,83.1L79.4,82.4z"/>
</g>
<g id="XMLID_5_">
	<path id="XMLID_40_" class="st0" d="M178.4,41c0,0-2.1,3.9-5.2,9.7c-3.1,5.9-7.1,13.7-11,21.7c-3.9,7.9-7.6,16-10.3,22
		c-2.7,6-4.5,10.1-4.5,10.1l-0.9-0.4c0,0,1.6-4.1,4.2-10.2c2.5-6.1,6-14.3,9.7-22.3c3.7-8.1,7.5-16.1,10.4-22c2.9-6,5-9.9,5-9.9
		L178.4,41z"/>
</g>
<g id="XMLID_6_">
	<path id="XMLID_38_" class="st0" d="M143.7,50L143.7,50L143.7,50c-0.1,0.1-0.2,0.1-0.2,0.2c-0.1,0.1-0.3,0.1-0.4,0.2
		c-0.1,0-0.2,0.1-0.3,0.1c-0.4,0.1-0.8,0-1-0.1c-0.6-0.2-0.9-0.5-1.2-0.9c-0.1-0.2-0.2-0.4-0.3-0.7c0-0.1-0.1-0.3-0.1-0.4
		c0-0.1,0-0.2,0-0.2l0-0.1c0-0.1,0,0,0-0.2l0-0.1l0-0.1c0-0.1,0.1-0.3,0.1-0.4c0.1-0.2,0.2-0.4,0.3-0.5c0.4-0.6,0.9-0.9,1.2-1.1
		l0.9-0.6c1.2-0.7,2.3-1.5,3.5-2.2c2.4-1.5,4.8-2.8,7.3-4c2.5-1.3,5-2.5,7.5-3.6c2.5-1.1,5.1-2.1,7.7-3.1c2.6-1,5.2-1.8,7.9-2.6
		c2.7-0.8,5.3-1.5,8.1-2c2.7-0.6,5.4-1,8.2-1.5c2.7-0.4,5.5-0.7,8.3-0.7c1.4,0,2.8,0.1,4.2,0.4c0.7,0.1,1.4,0.4,2,0.9
		c0.6,0.5,0.9,1.3,0.8,2c-0.1,1.5-0.8,2.7-1.6,3.8c-0.8,1.1-1.6,2.3-2.4,3.3l-1.2,1.6l-1.3,1.6c-0.8,1.1-1.8,2.1-2.6,3.2
		c-0.9,1.1-1.8,2.1-2.7,3.1c-0.9,1-1.9,2-2.8,3c-1.9,2-3.8,4-5.8,5.9c-1.9,2-3.9,3.9-5.9,5.8l-5.9,5.7c-2,1.9-4,3.7-6.1,5.5l0,0
		l-0.6-0.8c1.1-0.8,2.2-1.7,3.2-2.6c1-1,2.1-2,3.2-2.9c0.6-0.5,1.2-0.9,1.8-1.3c0.7-0.4,1.3-0.8,2.1-1.1c1.4-0.6,3-1,4.7-0.9
		c0.8,0.1,1.7,0.2,2.5,0.6c0.2,0.1,0.4,0.1,0.6,0.3l0.5,0.3c0.3,0.2,0.8,0.5,1,0.8c1.3,1.2,2,2.6,2.6,4c0.5,1.4,0.9,2.8,1.3,4.2
		c0.3,1.4,0.7,2.7,1.2,4c1,2.5,2.4,4.9,4.1,7c1.7,2.1,3.7,4.1,5.9,5.9c2.2,1.8,4.5,3.4,6.9,4.8c1.2,0.7,2.4,1.4,3.7,2.1
		c1.3,0.7,2.5,1.3,3.8,2c0,0,0,0,0,0c0,0,0,0.1,0,0.1c-0.1,0-0.1,0-0.1,0c0,0-0.1,0-0.1,0l-0.1-0.1l0-0.1l0.1,0.1l0.1,0c0,0,0,0,0,0
		c0,0,0,0,0,0c0,0,0,0,0,0c-1.3-0.5-2.7-1-4-1.5c-1.3-0.5-2.6-1.1-3.9-1.8c-1.3-0.6-2.6-1.3-3.8-2c-1.2-0.7-2.5-1.5-3.6-2.4
		c-2.4-1.7-4.6-3.6-6.5-5.8c-1.9-2.2-3.6-4.7-4.7-7.5c-0.6-1.4-1-2.8-1.4-4.2c-0.4-1.4-0.7-2.7-1.2-3.9c-0.5-1.2-1.1-2.3-1.9-3.1
		c-0.2-0.2-0.4-0.3-0.6-0.5l-0.5-0.3c0,0-0.2-0.1-0.3-0.2c-0.5-0.2-1.1-0.4-1.7-0.4c-1.2-0.1-2.5,0.1-3.7,0.6
		c-0.6,0.2-1.2,0.5-1.8,0.8c-0.6,0.3-1.2,0.7-1.7,1.1c-1.1,0.8-2.2,1.7-3.4,2.5c-1.2,0.9-2.4,1.7-3.7,2.3l-1.6,0.8l1-1.5l0,0
		c1.5-2.3,3.3-4.5,5.2-6.5c1.9-2,4-3.8,6-5.7c2.1-1.8,4.1-3.6,6.2-5.4c2.1-1.8,4.1-3.6,6.2-5.4c2-1.8,4-3.7,5.9-5.7
		c1.9-2,3.7-4,5.3-6.2c0.9-1.1,1.6-2.2,2.4-3.3c0.8-1.1,1.4-2.4,1.5-3.7c0-0.6-0.3-1.2-0.7-1.6c-0.5-0.4-1.1-0.6-1.8-0.7
		c-1.3-0.2-2.7-0.1-4,0c-2.7,0.2-5.4,0.7-8,1.4c-2.7,0.6-5.3,1.3-7.9,2.1c-2.6,0.7-5.2,1.6-7.8,2.4c-2.6,0.9-5.1,1.8-7.7,2.8
		c-2.5,1-5,2.1-7.5,3.2c-1.2,0.6-2.5,1.2-3.7,1.7c-1.2,0.6-2.4,1.2-3.6,1.8c-2.4,1.3-4.8,2.6-7.1,3.9c-1.2,0.7-2.3,1.4-3.5,2.1
		c-0.6,0.3-1.3,0.8-1.2,0.8l0-0.1c0,0,0,0,0-0.1c0,0,0,0,0,0l0,0.1l0-0.1l0-0.1l0-0.1c0-0.1,0-0.1,0-0.2c0-0.1-0.1-0.2-0.1-0.2
		c-0.1-0.1-0.1-0.2-0.4-0.3c-0.1,0-0.3-0.1-0.5,0c-0.1,0-0.1,0-0.2,0c-0.1,0-0.2,0.1-0.3,0.1c0,0-0.1,0.1-0.1,0.1l0,0l0.1,0
		L143.7,50z"/>
</g>
<g id="XMLID_7_">
	<path id="XMLID_36_" class="st0" d="M200.8,63.8l0-0.2c0,0,0,0,0-0.1c0-0.1,0-0.2,0-0.2c-0.1-0.2-0.2-0.3-0.3-0.4
		c-0.1-0.1-0.3-0.2-0.5-0.3c-0.1,0-0.2-0.1-0.3-0.1c-0.1,0-0.2,0-0.2,0c-0.1,0-0.2,0-0.3,0.1c-0.1,0-0.2,0.1-0.3,0.1
		c-0.2,0.1-0.3,0.2-0.5,0.4c-0.3,0.3-0.5,0.7-0.7,1.1l-0.7-0.6l2.4-1.1l0.7-0.3l0,0.8l-0.1,1.4l-0.6-0.5c1.3-0.1,2.6-0.6,3.8-1.3
		c1.2-0.7,2.2-1.6,3.2-2.6c1.9-2,3.7-4.2,5.3-6.5c1.6-2.3,3.2-4.6,4.5-7.1c0.7-1.2,1.4-2.5,2-3.7c0.6-1.2,1-2.6,0.7-3.8l0,0l0.4,0.4
		c-0.7-0.1-1.4,0.3-2.1,0.8c-0.7,0.5-1.4,1.1-2,1.7c-0.7,0.6-1.2,1.2-1.9,1.8c-0.6,0.6-1.2,1.3-1.7,2c-0.5,0.7-1,1.4-1.5,2.1
		c-0.4,0.8-1,1.5-1.4,2.3c-0.4,0.8-0.9,1.5-1.2,2.4c-0.3,0.8-0.7,1.6-1,2.4c-0.3,0.8-0.6,1.7-0.8,2.5l-0.4,1.3l-0.3,1.3
		c-0.1,0.4-0.2,0.9-0.3,1.3l-0.2,1.3c-0.1,0.9-0.2,1.7-0.2,2.6c-0.1,0.9,0,1.8,0,2.6c0,0.9,0.1,1.8,0.2,2.6c0.1,0.9,0.3,1.7,0.4,2.6
		c0.1,0.4,0.2,0.9,0.3,1.3c0.1,0.4,0.2,0.9,0.6,1.2l-1,0.3c0.1-0.5,0-0.9-0.1-1.4c-0.1-0.4-0.2-0.9-0.3-1.3
		c-0.1-0.9-0.4-1.8-0.5-2.6c-0.1-0.9-0.2-1.8-0.2-2.7c0-0.9-0.1-1.8,0-2.7c0-0.9,0.1-1.8,0.2-2.7l0.2-1.3c0.1-0.4,0.2-0.9,0.2-1.3
		l0.3-1.3l0.3-1.3c0.2-0.9,0.5-1.7,0.8-2.6c0.3-0.9,0.7-1.7,1-2.5c0.3-0.8,0.8-1.6,1.2-2.4c0.4-0.8,0.9-1.5,1.4-2.3
		c0.5-0.8,1-1.5,1.6-2.2c0.6-0.7,1.1-1.4,1.7-2.1c0.6-0.6,1.2-1.3,1.9-1.9c0.7-0.6,1.3-1.2,2-1.8c0.7-0.5,1.7-1.1,2.8-1l0.4,0
		l0.1,0.3l0,0c0.2,0.8,0.1,1.6,0,2.3c-0.2,0.7-0.4,1.4-0.7,2.1c-0.6,1.3-1.3,2.5-2,3.8c-1.4,2.5-2.9,4.9-4.6,7.2
		c-0.8,1.2-1.7,2.3-2.6,3.4c-0.9,1.1-1.8,2.2-2.8,3.2c-1,1-2.1,2-3.4,2.7c-1.3,0.8-2.7,1.3-4.2,1.5l-0.6,0.1l0-0.6l0.1-1.4l0.7,0.5
		l-2.4,1.1l-1,0.5l0.4-1.1c0.2-0.6,0.5-1.1,0.9-1.5c0.2-0.2,0.5-0.4,0.7-0.6c0.1-0.1,0.3-0.1,0.4-0.2c0.2-0.1,0.3-0.1,0.5-0.1
		c0.2,0,0.4,0,0.5,0c0.2,0,0.3,0.1,0.5,0.1c0.3,0.1,0.6,0.3,0.8,0.5c0.2,0.2,0.4,0.5,0.6,0.8c0.1,0.2,0.1,0.3,0.1,0.5
		c0,0.1,0,0.2,0,0.3l0,0.2L200.8,63.8z"/>
</g>
<path id="XMLID_8_" class="st1" d="M224.4,45.6c-6,6.8-16.9,21.2-16.9,21.2"/>
<path id="XMLID_9_" class="st1" d="M223.6,54.9c5.6-3,9.8-8.3,11.4-14.4c-1.1-0.3-2,0.6-2.7,1.5c-5.2,6.5-10.1,13.3-14.7,20.3"/>
<path id="XMLID_10_" class="st1" d="M210.1,69.5c-0.9,0.5-1.7,1-2.6,1.5c-0.4,0.3-1,0.5-1.4,0.2c-0.4-0.3-0.3-1-0.1-1.6
	c0.5-1.4,1.2-2.7,2.1-3.9c0.2-0.2,0.4-0.5,0.6-0.7c0.2-0.3,0.4-0.5,0.7-0.8"/>
<path id="XMLID_15_" class="st1" d="M247.9,59.6"/>
<path id="XMLID_16_" class="st1" d="M225.6,57.9"/>
<path id="XMLID_14_" class="st1" d="M218.6,57.6"/>
<path id="XMLID_12_" class="st1" d="M208.9,59c1.2,0.8,2.7,0.5,4.1,0.1c5.8-1.5,11.7-3,17.5-4.6"/>
<path id="XMLID_13_" class="st1" d="M171.2,16.1"/>
<g id="XMLID_11_">
	<path id="XMLID_34_" class="st0" d="M229.3,54.3c0,0,0.1,0,0.3,0c0.2,0,0.5,0,0.9,0c0.8,0,1.9-0.1,3.3-0.7c1.3-0.5,2.9-1.5,4.1-3
		c0.1-0.2,0.2-0.4,0.2-0.5c0-0.1,0-0.1,0-0.2c-0.1-0.2,0-0.1-0.1-0.2c-0.1-0.1-0.6-0.2-1.1-0.1c-0.3,0.1-0.5,0.1-0.7,0.3
		c-0.3,0.1-0.5,0.3-0.8,0.4c-0.5,0.3-1.1,0.6-1.6,0.9c-1,0.7-2,1.6-2.4,2.7c-0.5,1.2-0.4,2.5,0.4,3.5c0.8,1,2.2,1.6,3.7,2
		c1.5,0.4,3,0.7,4.6,0.9c3.2,0.5,6.5,0.7,9.9,0.9c3.4,0.1,6.9,0.3,10.4,0.5c3.5,0.3,7,0.6,10.4,1.1c3.4,0.5,6.7,1,10,1.7
		c3.2,0.6,6.3,1.3,9.2,2.1c2.9,0.8,5.6,1.5,8.1,2.3c2.5,0.8,4.8,1.5,6.8,2.2c2,0.7,3.7,1.4,5.2,1.9c1.4,0.5,2.5,1,3.3,1.3
		c0.8,0.3,1.2,0.5,1.2,0.5l-0.8,1.9c0,0-0.4-0.2-1.1-0.5c-0.8-0.3-1.8-0.8-3.2-1.3c-1.4-0.6-3.1-1.2-5.1-1.9c-2-0.7-4.2-1.5-6.7-2.3
		c-2.5-0.8-5.2-1.6-8-2.3c-2.9-0.7-5.9-1.5-9.1-2.1c-3.2-0.7-6.5-1.2-9.9-1.7c-3.4-0.5-6.8-0.9-10.3-1.2c-3.5-0.3-6.9-0.4-10.3-0.6
		c-3.4-0.2-6.8-0.4-10.1-1c-1.6-0.3-3.2-0.6-4.8-1c-1.5-0.4-3.1-1.1-4.3-2.4c-0.6-0.7-0.9-1.5-1-2.3c-0.1-0.8,0.1-1.7,0.4-2.4
		c0.6-1.5,1.8-2.5,2.9-3.3c0.6-0.4,1.2-0.7,1.7-1c0.3-0.1,0.6-0.3,0.9-0.4c0.3-0.1,0.6-0.3,1-0.3c0.3-0.1,0.7-0.1,1-0.1
		c0.4,0,0.8,0.1,1.1,0.5c0.2,0.1,0.3,0.5,0.3,0.6c0.1,0.3,0.1,0.5,0,0.7c-0.1,0.4-0.3,0.7-0.4,1c-1.4,1.8-3.2,2.8-4.6,3.4
		c-1.5,0.6-2.8,0.7-3.6,0.7c-0.4,0-0.8,0-1,0c-0.2,0-0.3,0-0.3,0L229.3,54.3z"/>
</g>
<g id="XMLID_17_">
	<path id="XMLID_32_" class="st0" d="M223.1,54.2l0.3-0.7l0.9,0.5c-0.7,1-0.9,2.2-0.8,3.4c0.1,1.2,0.6,2.4,1.3,3.4
		c0.3,0.5,0.7,1,1.1,1.5l0.3,0.4l0.2,0.2l0.2,0.2l0.7,0.7c0.5,0.4,0.9,0.8,1.5,1.2c0.5,0.4,1,0.8,1.6,1.1c2.2,1.4,4.5,2.5,7,3.3
		c1.2,0.4,2.5,0.8,3.7,1.2l1.9,0.5l1,0.2c0.3,0.1,0.6,0.1,0.9,0.5l-0.2,1c-0.4,0.2-0.7,0.1-1,0.1l-1-0.2l-1.9-0.5
		c-1.3-0.4-2.6-0.8-3.8-1.2c-1.3-0.5-2.5-1-3.7-1.6c-0.6-0.3-1.2-0.6-1.8-0.9c-0.6-0.3-1.2-0.7-1.7-1.1c-0.6-0.4-1.1-0.8-1.6-1.2
		c-0.5-0.4-1-0.9-1.5-1.4l-0.7-0.7l-0.2-0.2l-0.2-0.2l-0.3-0.4c-0.4-0.5-0.9-1.1-1.2-1.7c-0.7-1.2-1.3-2.5-1.4-4
		c-0.1-1.4,0.2-2.9,1.1-4.1l0.9,0.5l-0.3,0.7L223.1,54.2z"/>
</g>
</svg>
