<?xml version="1.0" encoding="utf-8"?>
<!-- Generator: Adobe Illustrator 18.0.0, SVG Export Plug-In . SVG Version: 6.00 Build 0)  -->
<!DOCTYPE svg PUBLIC "-//W3C//DTD SVG 1.1//EN" "http://www.w3.org/Graphics/SVG/1.1/DTD/svg11.dtd">
<svg version="1.1" id="Layer_1" xmlns="http://www.w3.org/2000/svg" xmlns:xlink="http://www.w3.org/1999/xlink" x="0px" y="0px"
	 viewBox="0 0 1820 599" enable-background="new 0 0 1820 599" xml:space="preserve">
<g>
	<g>
		<path fill="#B6944B" d="M778.9,562.2c9.9-66.8,19.8-133.7,29.8-200.5c3.3-22.1,6.7-44,8.4-66.3c1.5-19.8,2.6-39.6,4.6-59.4
			c2-19.8,4.9-39.6,10.6-58.7c4.1-13.6,10.2-29.4,22.6-37.6c9-6,20.4-9.2,30.6-12.6c12.5-4.2,25.3-7.5,38.2-10.4
			c27-6.1,54.5-10.1,82-13.8c23.4-3.2,46.9-6.2,70.2-10.1c27.1-4.6,54-10.6,80.9-16c58.5-11.7,117-23.4,175.4-35.1
			c-1.8-3.1-3.6-6.3-5.5-9.4c-100.3,80.9-203.8,157.9-310.1,230.8c-60.5,41.5-122,81.6-184.3,120.4c1.9,3.2,3.8,6.5,5.7,9.7
			c22.1-15.4,49.7-15.5,74.7-7.7c26.8,8.3,48.7,27,67.7,47c18.5,19.4,34.3,41.3,53.3,60.3c14.7,14.7,31.3,27.6,49.3,38
			c72.1,41.3,157.9,31.2,234.3,8.6c93.3-27.6,180.8-72.5,269.5-111.7c67.4-29.8,136.5-58,208.9-73.4c7.1-1.5,4.1-12.4-3-10.8
			c-96.6,20.5-187.1,63.2-276.5,103.8c-44.7,20.3-89.5,40.7-135.4,58.4c-41.5,16.1-84.2,30-128.2,37.6c-38.5,6.6-78.4,7.4-116.3-2.6
			c-39.3-10.4-73.5-32.9-101.2-62.4c-29-30.9-52.9-66.4-89.3-89.5c-33-21-79.8-28.5-113.5-5c-5.9,4.1-0.6,13.6,5.7,9.7
			c109.3-68,216-140.3,319.7-216.5c60-44.1,119-89.7,177-136.4c4.8-3.9-0.5-10.4-5.5-9.4c-66.5,13.2-132.9,26.5-199.4,39.9
			c-28.2,5.7-56.4,11.4-84.9,15.5c-27.3,3.9-54.8,7.3-82,11.7c-26.6,4.3-53.2,9.6-78.9,17.9c-18.2,5.9-36.7,11.8-48.4,27.7
			c-10.2,13.9-15,31.8-18.6,48.5c-4.3,20.2-6.4,40.9-8.1,61.5c-1.4,17.4-2.4,34.8-3.8,52.2c-2,23.2-6.2,46.1-9.6,69.1
			c-9.1,61.5-18.2,123-27.4,184.5C767,566.3,777.8,569.3,778.9,562.2L778.9,562.2z"/>
	</g>
</g>
<g>
	<g>
		<path fill="#B6944B" d="M220.6,315.7c-34.2,89.6-68.3,179.2-102.5,268.8c-2.6,6.8,8.3,9.7,10.8,3
			c34.2-89.6,68.3-179.2,102.5-268.8C234,311.9,223.2,309,220.6,315.7L220.6,315.7z"/>
	</g>
</g>
<g>
	<g>
		<path fill="#B6944B" d="M270,393.1c-7.5,6.5-14,13.7-19.9,21.7c-3.9,5.3,4.4,11.2,8.8,6.8c7.5-7.4,15-14.8,22.5-22.1
			c-1.8,0.5-3.6,1-5.5,1.4c23.7,7,49.7-2.7,63.6-22.8c-3.4-1.4-6.9-2.9-10.3-4.3c-22.6,55.2-47.7,109.4-75.1,162.3
			c-3.3,6.4,6.4,12.1,9.7,5.7c27.9-53.9,53.3-108.9,76.3-165c2.6-6.3-6.9-9.2-10.3-4.3c-11.1,16.1-32.3,23.1-50.9,17.6
			c-1.9-0.6-4.1,0.1-5.5,1.4c-7.5,7.4-15,14.8-22.5,22.1c2.9,2.3,5.9,4.5,8.8,6.8c5.2-7.2,11.4-13.6,18.1-19.5
			C283.4,396.3,275.5,388.4,270,393.1L270,393.1z"/>
	</g>
</g>
<g>
	<g>
		<path fill="#B6944B" d="M408.1,407.8c43.6-43.7,77.6-96.1,100-153.6c2-5.1-6-9.8-9.4-5.5c-27.5,35-45.6,76.7-51.6,120.8
			c3.6,0,7.2,0,10.8,0c-1.9-7.1,9.1-10.8,14.2-12.3c11.3-3.4,23.5-4.8,35.1-7.1c24.8-4.9,49.5-9.8,74.3-14.8
			c49.5-9.8,99.1-19.7,148.6-29.5c7.1-1.4,4.1-12.3-3-10.8c-52.8,10.5-105.6,21-158.4,31.5c-26.7,5.3-53.5,10.6-80.2,15.9
			c-14.6,2.9-47.5,7.5-41.4,30.2c1.3,5,10.1,5.8,10.8,0c5.7-42.1,22.4-82.4,48.7-115.9c-3.1-1.8-6.3-3.6-9.4-5.5
			c-21.7,55.6-55,106.4-97.1,148.6C395,405,403,413,408.1,407.8L408.1,407.8z"/>
	</g>
</g>
<g>
	<g>
		<path fill="#B6944B" d="M1104.9,298c-8.8,5.1-17.5,10.1-26.3,15.2c-5.4,3.1-1.8,12.6,4.3,10.3c40.7-15.2,80.9-31.3,113.7-60.6
			c30.8-27.5,53.7-62.8,76.1-97.2c3.5-5.3-4.6-11.6-8.8-6.8c-40.6,45.4-70.5,99.7-86.8,158.4c-1.9,7,8.9,10,10.8,3
			c15.8-56.8,44.6-109.5,83.9-153.4c-2.9-2.3-5.9-4.5-8.8-6.8c-21.6,33.3-43.7,66.8-73.1,93.8c-31.3,28.7-70.8,44.1-110,58.8
			c1.4,3.4,2.9,6.9,4.3,10.3c8.8-5.1,17.5-10.1,26.3-15.2C1116.9,304.1,1111.2,294.4,1104.9,298L1104.9,298z"/>
	</g>
</g>
<g>
	<g>
		<path fill="#B6944B" d="M44.1,393.3c106.6-63.7,215.8-123,327.3-177.7C483,160.9,596.9,110.8,712.7,65.5
			c38.2-14.9,76.5-29.3,115.1-43.2c6.8-2.4,3.9-13.3-3-10.8c-116.7,42-231.7,88.8-344.6,140.2c-113,51.5-223.9,107.7-332.2,168.4
			c-36.8,20.6-73.4,41.8-109.6,63.4C32.2,387.3,37.8,397,44.1,393.3L44.1,393.3z"/>
	</g>
</g>
<g>
	<g>
		<path fill="#B6944B" d="M1229,304.8c9.3-20.9,20.1-41,32.3-60.4c-3.5-0.9-7-1.9-10.5-2.8c0.1,6.1,0.2,12.2,0.4,18.2
			c0.1,7.2,11.2,7.3,11.2,0c0-5,0-10,0-15c0-5.4-7.8-7.9-10.5-2.8c-3.3,6.3-6.6,12.7-9.9,19c-2.2,4.3,1.4,9.7,6.4,8.3
			c127.8-36.3,255.5-72.7,383.3-109c24.3-6.9,48.6-13.8,72.8-20.7c7-2,4-12.8-3-10.8c-127.8,36.3-255.5,72.7-383.3,109
			c-24.3,6.9-48.6,13.8-72.8,20.7c2.1,2.8,4.2,5.5,6.4,8.3c3.3-6.3,6.6-12.7,9.9-19c-3.5-0.9-7-1.9-10.5-2.8c0,5,0,10,0,15
			c3.8,0,7.5,0,11.2,0c-0.1-6.1-0.2-12.2-0.4-18.2c-0.1-5.7-7.5-7.6-10.5-2.8c-12.2,19.4-22.9,39.5-32.3,60.4
			C1216.4,305.7,1226.1,311.4,1229,304.8L1229,304.8z"/>
	</g>
</g>
</svg>
