<svg xmlns="http://www.w3.org/2000/svg" viewBox="0 0 483.1 482.5"><path fill="none" stroke="#fff" stroke-width="48" stroke-miterlimit="10" d="M24 24.2h435.2v434.4H24z"/><path d="M190.9 82.7V137h-53.3v262.9h-53V82.7h106.3zm208.4 317.1h-64L232.5 234.1H293c6.9 0 13.4-1 19.6-3 6.2-2 11.6-4.9 16.2-8.9s8.2-9 10.9-15.1c2.7-6.1 4-13.4 4-21.8 0-8.2-1.4-15.3-4.2-21.4-2.8-6.1-6.5-11.1-11.2-15.1-4.7-4-10.1-6.9-16.2-8.9s-12.4-3-19.1-3h-86.9V82.3h87.3c12.7 0 25 1.3 36.8 4 11.8 2.7 22.8 8.4 33 17.2 10.7 9.3 18.9 20.7 24.8 34.1 5.8 13.4 8.8 27.8 8.8 43 0 13.6-2.4 27.3-7 41.1-4.7 13.9-11.5 25.4-20.4 34.8-7.4 7.9-14.7 13.6-21.9 17.2-7.2 3.5-15.7 6.6-25.3 9.1l77.1 117z" fill="#fff"/></svg>