<svg version="1.1" id="Layer_1" xmlns="http://www.w3.org/2000/svg" x="0" y="0" viewBox="0 0 343.5 130.5" xml:space="preserve"><style>.st0{fill:#b6944b}.st1{fill:none;stroke:#b6944b;stroke-miterlimit:10}</style><g id="XMLID_1_"><path id="XMLID_91_" class="st0" d="M8.9 27.8s.3-.1.8-.3c.5-.2 1.4-.6 2.6-1 2.2-.8 5.6-1.8 9.9-2.8 4.3-1 9.5-2 15.6-2.9 3-.5 6.2-1 9.6-1.6 1.7-.3 3.4-.6 5.2-.8 1.8-.3 3.6-.5 5.4-.8 3.7-.5 7.6-1.1 11.6-1.7 4-.5 8.1-1 12.4-1.5 2.1-.3 4.3-.5 6.5-.8 2.2-.2 4.4-.5 6.6-.7 4.5-.4 9.1-1 13.7-1.4 4.7-.4 9.4-.8 14.2-1.2 4.8-.4 9.7-.6 14.6-.9 2.5-.1 4.9-.3 7.4-.4 2.5-.1 5-.2 7.4-.3 5-.2 10-.5 14.9-.5 5-.1 10-.3 15-.3h14.8c9.8.1 19.5.2 28.8.7 9.4.3 18.4.9 26.9 1.4 4.3.3 8.4.7 12.5 1 2 .2 4 .3 5.9.5l5.7.6c7.4.7 14.3 1.4 20.3 2.2 6 .7 11.3 1.3 15.6 2 8.6 1.2 13.6 1.9 13.6 1.9l-.1 1s-4.9-.7-13.6-1.8c-4.3-.6-9.6-1.2-15.6-1.9s-12.9-1.3-20.3-2c-1.9-.2-3.8-.3-5.7-.5-1.9-.1-3.9-.3-5.9-.4-4-.3-8.2-.6-12.4-.9-8.6-.4-17.6-1-26.9-1.2-9.3-.4-19-.4-28.8-.5-4.9 0-9.8.1-14.8.1-5 .1-9.9.3-14.9.4-5 .1-10 .4-14.9.6-2.5.1-4.9.2-7.4.4-2.5.1-4.9.3-7.4.5-4.9.4-9.7.6-14.5 1-4.8.4-9.5.8-14.2 1.2-4.6.4-9.2 1-13.7 1.4-2.2.2-4.4.5-6.6.7-2.2.3-4.3.6-6.4.8-4.2.6-8.4 1.1-12.4 1.6-4 .6-7.8 1.2-11.5 1.7-1.8.3-3.7.5-5.4.8-1.8.3-3.5.6-5.2.9-3.4.6-6.5 1.1-9.5 1.6-6 1-11.2 2-15.3 3-4.2 1-7.4 2-9.6 2.8-1.1.4-1.9.7-2.4.9-.6.2-.8.3-.8.3l-1.3-2.9z"/></g><g id="XMLID_2_"><path id="XMLID_89_" class="st0" d="M75.8 15.8s.5.7 0 1.3c-.3.7-.8 1.6-1.5 2.8-.6 1.2-1.4 2.7-2.2 4.4-.8 1.7-1.8 3.6-2.8 5.8-1 2.1-2.1 4.4-3.2 6.9-1.1 2.4-2.2 5-3.4 7.7-1.1 2.7-2.3 5.5-3.5 8.4-1.2 2.9-2.3 5.8-3.4 8.7-1.1 2.9-2.2 5.9-3.2 8.8-1.1 2.9-2 5.8-3 8.5-.9 2.8-1.8 5.5-2.6 8.1-.8 2.6-1.6 5-2.2 7.3-.7 2.2-1.3 4.3-1.8 6.2-.5 1.8-1 3.4-1.3 4.8-.7 2.7-1.1 4.2-1.1 4.2l-1-.2s.4-1.5 1-4.2c.3-1.3.7-3 1.2-4.8.5-1.9 1-4 1.6-6.2.6-2.3 1.3-4.7 2-7.3.7-2.6 1.6-5.3 2.4-8.1.9-2.8 1.8-5.7 2.8-8.6 1-2.9 2-5.9 3.1-8.9 1.1-2.9 2.2-5.9 3.3-8.8 1.1-2.9 2.3-5.7 3.4-8.4 1.2-2.7 2.3-5.3 3.4-7.8s2.1-4.8 3.1-6.9c1-2.1 1.9-4.1 2.8-5.8.8-1.7 1.6-3.2 2.2-4.5l1.4-2.8c.2-.7 1-.7 1-.7l1.5.1z"/></g><path id="XMLID_3_" class="st1" d="M64.8 81.2c-.1-1-.6-1.9-1.3-2.7-1.9 1.8-3.2 4.2-3.7 6.7.6.4 1.5-.1 1.9-.8.4-.7.7-1.5 1.3-1.9.6-.3 1.3-.3 1.9-.3 5.8.1 11.5-3.3 14.2-8.4-5.3 13.6-10.7 27.2-16 40.8-.1.3-.2.6-.4.9"/><g id="XMLID_4_"><path id="XMLID_87_" class="st0" d="M79.4 82.4l1.4-1.3 1.3-1.3 1.3-1.4 1.2-1.5 1.1-1.5 1-1.6 1-1.6.9-1.7.8-1.7.7-1.8.6-1.8.5-1.8.4-1.8c.1-.6.2-1.2.4-1.9.1-.6.2-1.3.3-1.9.1-.6.2-1.3.3-1.9l.9.4-1.1 1.2-1 1.3-.9 1.3-.9 1.4-.8 1.4-.7 1.5-.6 1.5-.6 1.5-.5 1.6-.4 1.4-.3 1.6-.2 1.6-.2 1.6-.1 1.6v1.6l.1 1.6-.9-.3c.3-.3.5-.8.4-1.2V78l.5-.1c1.4-.2 2.9-.4 4.3-.5 1.4-.2 2.8-.4 4.3-.5l4.3-.6 4.3-.7c2.8-.5 5.7-1 8.5-1.6l8.5-1.7c2.8-.6 5.7-1.1 8.6-1.5l4.3-.6 4.3-.5 4.4-.3 4.4-.1 4.4.1 4.4.4-.1 1-4.3-.2h-4.3l-4.3.2-4.3.4-4.3.6-4.3.7-4.2.8-4.2.8-8.5 1.7c-2.8.6-5.7 1.1-8.5 1.6l-4.3.7-4.3.5c-1.5.1-2.9.2-4.4.3-1.5 0-2.9 0-4.4-.1l.5-.5c0 .7-.2 1.4-.7 1.9l-.8.8-.1-1.1-.1-1.7v-1.7l.1-1.7.2-1.7.2-1.7.3-1.7.4-1.6.5-1.6.6-1.6.7-1.6.7-1.5.8-1.5.9-1.4 1-1.4 1-1.3 1.1-1.3.8-1v1.3c.1.7.1 1.3.1 2s0 1.3-.1 2-.2 1.3-.3 2l-.4 2-.6 1.9-.7 1.9-.8 1.8-.9 1.8-1 1.8-1.1 1.7-1.2 1.6-1.2 1.6-1.3 1.5-1.4 1.4-1.5 1.3-1.3 1.6-.6-.7z"/></g><g id="XMLID_5_"><path id="XMLID_40_" class="st0" d="M178.4 41s-2.1 3.9-5.2 9.7c-3.1 5.9-7.1 13.7-11 21.7-3.9 7.9-7.6 16-10.3 22-2.7 6-4.5 10.1-4.5 10.1l-.9-.4s1.6-4.1 4.2-10.2c2.5-6.1 6-14.3 9.7-22.3 3.7-8.1 7.5-16.1 10.4-22 2.9-6 5-9.9 5-9.9l2.6 1.3z"/></g><g id="XMLID_6_"><path id="XMLID_38_" class="st0" d="M143.7 50c-.1.1-.2.1-.2.2-.1.1-.3.1-.4.2-.1 0-.2.1-.3.1-.4.1-.8 0-1-.1-.6-.2-.9-.5-1.2-.9-.1-.2-.2-.4-.3-.7 0-.1-.1-.3-.1-.4v-.7c0-.1.1-.3.1-.4.1-.2.2-.4.3-.5.4-.6.9-.9 1.2-1.1l.9-.6c1.2-.7 2.3-1.5 3.5-2.2 2.4-1.5 4.8-2.8 7.3-4 2.5-1.3 5-2.5 7.5-3.6s5.1-2.1 7.7-3.1c2.6-1 5.2-1.8 7.9-2.6s5.3-1.5 8.1-2c2.7-.6 5.4-1 8.2-1.5 2.7-.4 5.5-.7 8.3-.7 1.4 0 2.8.1 4.2.4.7.1 1.4.4 2 .9.6.5.9 1.3.8 2-.1 1.5-.8 2.7-1.6 3.8-.8 1.1-1.6 2.3-2.4 3.3l-1.2 1.6-1.3 1.6c-.8 1.1-1.8 2.1-2.6 3.2-.9 1.1-1.8 2.1-2.7 3.1-.9 1-1.9 2-2.8 3-1.9 2-3.8 4-5.8 5.9-1.9 2-3.9 3.9-5.9 5.8l-5.9 5.7c-2 1.9-4 3.7-6.1 5.5l-.6-.8c1.1-.8 2.2-1.7 3.2-2.6 1-1 2.1-2 3.2-2.9.6-.5 1.2-.9 1.8-1.3.7-.4 1.3-.8 2.1-1.1 1.4-.6 3-1 4.7-.9.8.1 1.7.2 2.5.6.2.1.4.1.6.3l.5.3c.3.2.8.5 1 .8 1.3 1.2 2 2.6 2.6 4 .5 1.4.9 2.8 1.3 4.2.3 1.4.7 2.7 1.2 4 1 2.5 2.4 4.9 4.1 7 1.7 2.1 3.7 4.1 5.9 5.9 2.2 1.8 4.5 3.4 6.9 4.8 1.2.7 2.4 1.4 3.7 2.1 1.3.7 2.5 1.3 3.8 2v.1h-.2l-.1-.1v-.1l.1.1h.1c-1.3-.5-2.7-1-4-1.5-1.3-.5-2.6-1.1-3.9-1.8-1.3-.6-2.6-1.3-3.8-2-1.2-.7-2.5-1.5-3.6-2.4-2.4-1.7-4.6-3.6-6.5-5.8-1.9-2.2-3.6-4.7-4.7-7.5-.6-1.4-1-2.8-1.4-4.2-.4-1.4-.7-2.7-1.2-3.9-.5-1.2-1.1-2.3-1.9-3.1-.2-.2-.4-.3-.6-.5l-.5-.3s-.2-.1-.3-.2c-.5-.2-1.1-.4-1.7-.4-1.2-.1-2.5.1-3.7.6-.6.2-1.2.5-1.8.8-.6.3-1.2.7-1.7 1.1-1.1.8-2.2 1.7-3.4 2.5-1.2.9-2.4 1.7-3.7 2.3l-1.6.8 1-1.5c1.5-2.3 3.3-4.5 5.2-6.5 1.9-2 4-3.8 6-5.7 2.1-1.8 4.1-3.6 6.2-5.4 2.1-1.8 4.1-3.6 6.2-5.4 2-1.8 4-3.7 5.9-5.7 1.9-2 3.7-4 5.3-6.2.9-1.1 1.6-2.2 2.4-3.3.8-1.1 1.4-2.4 1.5-3.7 0-.6-.3-1.2-.7-1.6-.5-.4-1.1-.6-1.8-.7-1.3-.2-2.7-.1-4 0-2.7.2-5.4.7-8 1.4-2.7.6-5.3 1.3-7.9 2.1-2.6.7-5.2 1.6-7.8 2.4-2.6.9-5.1 1.8-7.7 2.8-2.5 1-5 2.1-7.5 3.2-1.2.6-2.5 1.2-3.7 1.7l-3.6 1.8c-2.4 1.3-4.8 2.6-7.1 3.9-1.2.7-2.3 1.4-3.5 2.1-.6.3-1.3.8-1.2.8v-.2.1-.5c0-.1-.1-.2-.1-.2-.1-.1-.1-.2-.4-.3-.1 0-.3-.1-.5 0h-.2c-.1 0-.2.1-.3.1l-.1.1h.1l1.7 2.3z"/></g><g id="XMLID_7_"><path id="XMLID_36_" class="st0" d="M200.8 63.8v-.5c-.1-.2-.2-.3-.3-.4-.1-.1-.3-.2-.5-.3-.1 0-.2-.1-.3-.1h-.2c-.1 0-.2 0-.3.1-.1 0-.2.1-.3.1-.2.1-.3.2-.5.4-.3.3-.5.7-.7 1.1l-.7-.6 2.4-1.1.7-.3v.8l-.1 1.4-.6-.5c1.3-.1 2.6-.6 3.8-1.3 1.2-.7 2.2-1.6 3.2-2.6 1.9-2 3.7-4.2 5.3-6.5 1.6-2.3 3.2-4.6 4.5-7.1.7-1.2 1.4-2.5 2-3.7.6-1.2 1-2.6.7-3.8l.4.4c-.7-.1-1.4.3-2.1.8-.7.5-1.4 1.1-2 1.7-.7.6-1.2 1.2-1.9 1.8-.6.6-1.2 1.3-1.7 2l-1.5 2.1c-.4.8-1 1.5-1.4 2.3-.4.8-.9 1.5-1.2 2.4-.3.8-.7 1.6-1 2.4-.3.8-.6 1.7-.8 2.5l-.4 1.3-.3 1.3c-.1.4-.2.9-.3 1.3l-.2 1.3c-.1.9-.2 1.7-.2 2.6-.1.9 0 1.8 0 2.6 0 .9.1 1.8.2 2.6.1.9.3 1.7.4 2.6.1.4.2.9.3 1.3.1.4.2.9.6 1.2l-1 .3c.1-.5 0-.9-.1-1.4-.1-.4-.2-.9-.3-1.3-.1-.9-.4-1.8-.5-2.6-.1-.9-.2-1.8-.2-2.7 0-.9-.1-1.8 0-2.7 0-.9.1-1.8.2-2.7l.2-1.3c.1-.4.2-.9.2-1.3l.3-1.3.3-1.3c.2-.9.5-1.7.8-2.6.3-.9.7-1.7 1-2.5.3-.8.8-1.6 1.2-2.4.4-.8.9-1.5 1.4-2.3.5-.8 1-1.5 1.6-2.2.6-.7 1.1-1.4 1.7-2.1.6-.6 1.2-1.3 1.9-1.9.7-.6 1.3-1.2 2-1.8.7-.5 1.7-1.1 2.8-1h.4l.1.3c.2.8.1 1.6 0 2.3-.2.7-.4 1.4-.7 2.1-.6 1.3-1.3 2.5-2 3.8-1.4 2.5-2.9 4.9-4.6 7.2-.8 1.2-1.7 2.3-2.6 3.4-.9 1.1-1.8 2.2-2.8 3.2-1 1-2.1 2-3.4 2.7-1.3.8-2.7 1.3-4.2 1.5l-.6.1v-.6l.1-1.4.7.5-2.4 1.1-1 .5.4-1.1c.2-.6.5-1.1.9-1.5.2-.2.5-.4.7-.6.1-.1.3-.1.4-.2.2-.1.3-.1.5-.1h.5c.2 0 .3.1.5.1.3.1.6.3.8.5.2.2.4.5.6.8.1.2.1.3.1.5v.5l-.9-.1z"/></g><path id="XMLID_8_" class="st1" d="M224.4 45.6c-6 6.8-16.9 21.2-16.9 21.2"/><path id="XMLID_9_" class="st1" d="M223.6 54.9c5.6-3 9.8-8.3 11.4-14.4-1.1-.3-2 .6-2.7 1.5-5.2 6.5-10.1 13.3-14.7 20.3"/><path id="XMLID_10_" class="st1" d="M210.1 69.5c-.9.5-1.7 1-2.6 1.5-.4.3-1 .5-1.4.2-.4-.3-.3-1-.1-1.6.5-1.4 1.2-2.7 2.1-3.9.2-.2.4-.5.6-.7.2-.3.4-.5.7-.8"/><path id="XMLID_12_" class="st1" d="M208.9 59c1.2.8 2.7.5 4.1.1 5.8-1.5 11.7-3 17.5-4.6"/><g id="XMLID_11_"><path id="XMLID_34_" class="st0" d="M229.3 54.3h1.2c.8 0 1.9-.1 3.3-.7 1.3-.5 2.9-1.5 4.1-3 .1-.2.2-.4.2-.5v-.2c-.1-.2 0-.1-.1-.2s-.6-.2-1.1-.1c-.3.1-.5.1-.7.3-.3.1-.5.3-.8.4-.5.3-1.1.6-1.6.9-1 .7-2 1.6-2.4 2.7-.5 1.2-.4 2.5.4 3.5s2.2 1.6 3.7 2c1.5.4 3 .7 4.6.9 3.2.5 6.5.7 9.9.9 3.4.1 6.9.3 10.4.5 3.5.3 7 .6 10.4 1.1 3.4.5 6.7 1 10 1.7 3.2.6 6.3 1.3 9.2 2.1 2.9.8 5.6 1.5 8.1 2.3 2.5.8 4.8 1.5 6.8 2.2 2 .7 3.7 1.4 5.2 1.9 1.4.5 2.5 1 3.3 1.3.8.3 1.2.5 1.2.5l-.8 1.9s-.4-.2-1.1-.5c-.8-.3-1.8-.8-3.2-1.3-1.4-.6-3.1-1.2-5.1-1.9-2-.7-4.2-1.5-6.7-2.3-2.5-.8-5.2-1.6-8-2.3-2.9-.7-5.9-1.5-9.1-2.1-3.2-.7-6.5-1.2-9.9-1.7-3.4-.5-6.8-.9-10.3-1.2-3.5-.3-6.9-.4-10.3-.6-3.4-.2-6.8-.4-10.1-1-1.6-.3-3.2-.6-4.8-1-1.5-.4-3.1-1.1-4.3-2.4-.6-.7-.9-1.5-1-2.3-.1-.8.1-1.7.4-2.4.6-1.5 1.8-2.5 2.9-3.3.6-.4 1.2-.7 1.7-1 .3-.1.6-.3.9-.4.3-.1.6-.3 1-.3.3-.1.7-.1 1-.1.4 0 .8.1 1.1.5.2.1.3.5.3.6.1.3.1.5 0 .7-.1.4-.3.7-.4 1-1.4 1.8-3.2 2.8-4.6 3.4-1.5.6-2.8.7-3.6.7h-1.3v-1.2z"/></g><g id="XMLID_17_"><path id="XMLID_32_" class="st0" d="M223.1 54.2l.3-.7.9.5c-.7 1-.9 2.2-.8 3.4.1 1.2.6 2.4 1.3 3.4.3.5.7 1 1.1 1.5l.3.4.2.2.2.2.7.7c.5.4.9.8 1.5 1.2.5.4 1 .8 1.6 1.1 2.2 1.4 4.5 2.5 7 3.3 1.2.4 2.5.8 3.7 1.2l1.9.5 1 .2c.3.1.6.1.9.5l-.2 1c-.4.2-.7.1-1 .1l-1-.2-1.9-.5c-1.3-.4-2.6-.8-3.8-1.2-1.3-.5-2.5-1-3.7-1.6l-1.8-.9c-.6-.3-1.2-.7-1.7-1.1-.6-.4-1.1-.8-1.6-1.2-.5-.4-1-.9-1.5-1.4l-.7-.7-.2-.2-.2-.2-.3-.4c-.4-.5-.9-1.1-1.2-1.7-.7-1.2-1.3-2.5-1.4-4-.1-1.4.2-2.9 1.1-4.1l.9.5-.3.7-1.3-.5z"/></g></svg>