<?xml version="1.0" encoding="utf-8"?>
<!-- Generator: Adobe Illustrator 19.0.0, SVG Export Plug-In . SVG Version: 6.00 Build 0)  -->
<svg version="1.1" id="Layer_1" xmlns="http://www.w3.org/2000/svg" xmlns:xlink="http://www.w3.org/1999/xlink" x="0px" y="0px"
	 viewBox="0 0 112.3 50" style="enable-background:new 0 0 112.3 50;" xml:space="preserve">
<style type="text/css">
	.st0{fill:#393E61;}
	.st1{fill:#D63834;}
	.st2{fill:#FFFFFF;}
	.st3{fill:#FEE000;}
	.st4{fill:#D63834;stroke:#393E61;stroke-width:0.5;stroke-linecap:round;stroke-miterlimit:10;}
	.st5{font-family:'Sunset-Serial-Medium-Regular';}
	.st6{font-size:10.8898px;}
	.st7{fill:#64BE67;stroke:#3F3F3F;stroke-width:0.5;stroke-miterlimit:10;}
	.st8{fill:#D63834;stroke:#393E61;stroke-width:0.5;stroke-miterlimit:10;}
</style>
<g id="XMLID_1_">
	<g id="XMLID_55_">
		<polygon id="XMLID_8_" class="st0" points="53.8,5.4 65.7,19.1 56.3,19.2 48.9,10.4 10.1,49.7 0,49.7 44.2,5 49,0.1 49.1,0 
			49.1,0 49.3,0.2 		"/>
	</g>
	<g id="XMLID_54_">
	</g>
</g>
<g id="XMLID_3_">
	<g id="XMLID_48_">
		<polygon id="XMLID_6_" class="st1" points="56.3,27.2 56.3,33.5 48.6,25.3 24.4,49.7 18.1,49.7 48.9,18.7 		"/>
	</g>
	<g id="XMLID_47_">
	</g>
</g>
<g id="XMLID_2_">
	<g id="XMLID_41_">
		<polygon id="XMLID_4_" class="st0" points="56.3,38.5 56.3,42 48.8,34.7 33.9,49.7 30.4,49.7 47,32.9 48.8,31.1 50.6,32.9 		"/>
	</g>
	<g id="XMLID_40_">
	</g>
</g>
<polygon id="XMLID_16_" class="st2" points="48.9,18.7 56.3,27.2 56.3,19.2 48.9,10.4 10.1,49.7 18.1,49.7 "/>
<polygon id="XMLID_15_" class="st2" points="48.6,25.3 24.4,49.7 30.4,49.7 48.8,31.1 56.3,38.5 56.3,33.5 "/>
<path id="XMLID_14_" class="st3" d="M50.6,32.9"/>
<text id="XMLID_13_" transform="matrix(1 0 0 1 71.5439 43.9443)"><tspan x="0" y="0" class="st4 st5 st6">SUPPLY</tspan><tspan x="41.2" y="0" class="st7 st5 st6"> </tspan></text>
<text id="XMLID_12_" transform="matrix(1 0 0 1 58.9443 28.1934)"><tspan x="0" y="0" class="st4 st5 st6">R</tspan><tspan x="7.4" y="0" class="st7 st5 st6"> </tspan></text>
<text id="XMLID_11_" transform="matrix(1 0 0 1 59.2607 48.5938)"><tspan x="0" y="0" class="st4 st5 st6">S</tspan><tspan x="6.8" y="0" class="st7 st5 st6"> </tspan></text>
<path id="XMLID_10_" class="st8" d="M66.8,34.6c0.5,1.2,0.2,2-0.9,2.5c-1.3,0.7-2.7,0.7-4.1,0.3c-1.4-0.4-2.3-1.4-2.3-2.6
	c0-1.2,0.6-1.9,2.2-2.4c0.3-1.6,1.6-2.3,3.1-1.6c0.4,0.2,0.7,0.6,0.8,1c0.1,0.2-0.3,0.8-0.6,0.8c-0.4,0.1-0.8-0.2-1.2-0.4
	c-0.1,0-0.1-0.1-0.3-0.1c0.2,0.3,0.4,0.6,0.7,1.1c-0.4,0.1-0.7,0.1-1.1,0.2c-0.2,0-0.5,0-0.6,0.2c-0.4,0.7-0.3,1.5,0.1,2.1
	c0.4,0.6,1,0.9,1.7,0.8c0.3,0,0.5-0.2,0.7-0.4c0.1-0.2,0.1-0.5,0-0.7c-0.1-0.1-0.4-0.2-0.6-0.2c-0.2,0-0.4,0.1-0.7,0.2
	c-0.3-0.7,0.1-1,0.5-1.3c0.7-0.3,1.3-0.6,2-0.8c0.2-0.1,0.5-0.2,0.7-0.3c0.2-0.2,0.3-0.5,0.4-0.8c-0.3-0.1-0.5-0.1-0.8-0.2
	c-0.1,0-0.1,0-0.2-0.1c0.1-0.7,0.5-1,1.3-1c0.7,0,1.3,0.5,1.4,1.2c0.1,0.9-0.4,1.5-1.1,1.9C67.7,34.2,67.3,34.4,66.8,34.6z"/>
</svg>
