<?xml version="1.0" encoding="utf-8"?>
<!-- Generator: Adobe Illustrator 19.0.0, SVG Export Plug-In . SVG Version: 6.00 Build 0)  -->
<svg version="1.1" id="Layer_1" xmlns="http://www.w3.org/2000/svg" xmlns:xlink="http://www.w3.org/1999/xlink" x="0px" y="0px"
	 viewBox="0 0 218.4 48" style="enable-background:new 0 0 218.4 48;" xml:space="preserve">
<style type="text/css">
	.st0{fill:#9561A8;}
	.st1{fill:#54B948;}
	.st2{fill:none;stroke:#000000;stroke-width:0.9778;}
	.st3{fill:none;stroke:#000000;stroke-width:0.5704;stroke-linecap:round;}
	.st4{fill:none;stroke:#000000;stroke-width:0.9778;stroke-linecap:square;stroke-linejoin:bevel;}
	.st5{stroke:#000000;stroke-width:0.5704;}
	.st6{fill:none;stroke:#000000;stroke-width:0.4889;}
	.st7{fill:none;stroke:#000000;stroke-width:0.4889;stroke-linecap:round;}
	.st8{stroke:#000000;stroke-width:0.4889;stroke-linecap:round;}
	.st9{fill:#EB2D2E;}
	.st10{fill:#006C67;}
</style>
<g id="XMLID_73_">
	<polygon id="XMLID_105_" class="st0" points="100.3,11.2 98.9,11.5 96.2,13 93.9,13.8 91.8,13.9 91.1,14.7 90.7,17.7 90.4,19.8 
		90.4,21.5 90.4,23.4 90,26.1 90.1,28 88.5,29.9 88.3,32.1 88.4,35 89,37.4 91.3,38.2 93.7,37.1 95.7,36.7 99.1,34.6 99.8,33.1 
		104.2,32 106,28.7 108.8,26.7 109.7,25.1 110.5,22.9 112.4,21.2 113.1,18.6 112.8,15.9 110.6,13.6 	"/>
	<polygon id="XMLID_104_" class="st1" points="101.7,5.3 106.6,1.1 110.4,0 112.5,1.1 114.7,3.6 115.5,5.3 117,7 120,10.9 
		118.1,12.7 115.7,14.3 115.1,16.1 112.5,14.9 112.1,15.9 109.6,14.9 108.1,16.1 106.7,16.1 105.4,14.8 103.9,14.6 102,14.9 
		101.1,14.2 101,10.9 100.5,7.8 101.1,5.5 	"/>
	<polygon id="XMLID_103_" class="st1" points="98.2,7.4 94.1,7.4 91,8.3 92,9.5 92.2,10.8 90.3,11.9 90.1,13 91.2,13.6 91.1,14.1 
		92.9,14.5 95.1,14.3 97.1,13 98.7,11.6 100.4,11.2 100.2,8.4 99.7,7 	"/>
	<path id="XMLID_102_" class="st2" d="M99.2,7.5c-4.2-0.3-8.6,0.9-8.5,1.3c0,0.2,2,1.5,1.9,1.8c-0.1,0.3-2,1.1-2.5,2
		c-0.5,0.9,1.3,1.3,1.3,1.3s-2,2.8-0.6,4.3c0.7,0.8-1.5,2.4-0.2,4.7c0.6,1.6-1.7,2.8-0.3,5c-4.6,3.6-0.8,5.8-1.4,6.3
		c-0.6,0.5-1,2.4,0.2,3.5c1.2,1.1,3.8,0.8,5-1.1c2.4,0.7,5.4-1,5.7-3.5c2,0.5,6.4-0.3,6.1-4.9c4,0,3.7-2.3,4.3-5.1
		c0.6-0.1,5-2.4,2.2-7.5c0,0,0-0.6,0.6-0.1c0.4,0.4,4.2,1.7,2.5-1.6c0.7,0,4.3-0.8,4.3-2.9c-0.3-0.7-1.2-2.8-2.9-3.7
		c0.6-1.9-0.5-1.4-1.4-2c0,0,0,0,0.1-1.3c-0.1-0.3-2.2-1.1-3.2-1.8c0,0,1.2-0.2,0.7-1.1c-0.8-1.4-6.1-1.8-10.4,3.1
		c0,0-1.4-0.1-1.8-3.1c-0.5-0.6-0.8,0.2-0.5,2.1c0.3,1.8-0.3,2.5-0.4,3.2C99.8,7.2,99.2,7.5,99.2,7.5z"/>
	<path id="XMLID_101_" class="st3" d="M116.6,7.5c0,0-2.6,1.5-2.7,2.9"/>
	<path id="XMLID_100_" class="st3" d="M115.7,5.6c0,0-4,1.4-5.6,3.5c0,0,1.3,4.2,2.8,6"/>
	<path id="XMLID_99_" class="st3" d="M114.9,4.4c0,0-6.2,0.5-7.9,3.3c0,0,0.5,3.5,2,6.6"/>
	<path id="XMLID_98_" class="st3" d="M111.8,2.1c0,0-5.4,1-7.2,4.3c0,0,2.2,5-0.2,7.8"/>
	<path id="XMLID_97_" class="st3" d="M115.4,14.1c0,0-2.3-2.9-2.3-3.5"/>
	<path id="XMLID_96_" class="st3" d="M102.7,4.9c0.2,1.1,6.2,5.7,16.4,6.3"/>
	<path id="XMLID_95_" class="st4" d="M100.1,7c0.2,0.6,1.1,5.5,0.9,7.8c0,0.5,2.5,0.2,3.3-0.3c0.3-0.3,3.3,2.5,3.3,2.5
		c0.9-1.4,0.9-1.8,1.3-2.2c0.6-0.6,1.9,1.3,3.5,0.7"/>
	<path id="XMLID_94_" class="st5" d="M102.5,4.7L102.5,4.7L102.5,4.7l-2.1-2.9c0,0-0.1,6.7,0.1,6c0.3-0.8,0.9-0.9,1.4-1.3
		c0.4-0.4,0.7-0.9,1.2-1L102.5,4.7z"/>
	<path id="XMLID_93_" class="st6" d="M101,11c-0.6,0.5-2.1,0.4-2.5,0.7c-0.9,0.9-1.3,1.3-2.5,2.4c-0.8,0.7-3.1-0.1-4.2,0"/>
	<path id="XMLID_92_" class="st6" d="M100,7.8c-2.5,1.2-5.4,6.1-9,5.8"/>
	<path id="XMLID_91_" class="st6" d="M96.2,13.7"/>
	<path id="XMLID_90_" class="st6" d="M95.1,12c0.8,0.4,0.8,1.2,0.9,2.2"/>
	<path id="XMLID_89_" class="st6" d="M98.6,11.6c0-0.4-0.2-2.3-0.7-2.3"/>
	<path id="XMLID_88_" class="st7" d="M96.6,10.3c-1.8,0-1.8,0.1-2.7,0.2"/>
	<path id="XMLID_87_" class="st7" d="M95.5,14.6c0.1,1.6,0,1,0.2,1.8c0.2,0.8,0.1,0.8,0.8,1.6c0.8,0.8,2.4,0.7,3.2,0.4
		c0.8-0.3,2-2,2-2.6"/>
	<path id="XMLID_86_" class="st7" d="M95.7,16.4c-0.9-0.3-2.2,0.4-4.4,2.1"/>
	<path id="XMLID_85_" class="st7" d="M91,23.2c2.6,1.1,6.6-2.3,6.7-4.5"/>
	<path id="XMLID_84_" class="st7" d="M101.1,17.4c0.9,5.9,6.9,3.5,6.6,0.1"/>
	<path id="XMLID_83_" class="st7" d="M110.5,22.7c0,0-2,0.7-2.8-0.4c-0.8-1.1-0.9-1.6-1-2.3"/>
	<path id="XMLID_82_" class="st7" d="M107.6,22.5c-0.8,0.8-0.8,0.4-1.3,1.8c-0.5,1.4-1.1,2.6-0.9,3.6"/>
	<path id="XMLID_81_" class="st7" d="M106.6,23.5c-2.7-1.8-4.2-0.3-4.2-0.3c-1,1.3-2,1.5-2.2,1.8c-1.2,1.3-0.3,2.4-0.2,2.7
		c1,1.3,3.8,2.1,5.3-0.2"/>
	<path id="XMLID_80_" class="st7" d="M100,25c-1.8,0.5-4.7-0.4-5-2.6"/>
	<path id="XMLID_79_" class="st7" d="M95.7,24c-1.3,1.4-2.4,1.7-2.9,3.7c-0.4,1.4,1,3,1.6,3.2c0,0,2.5,1.4,4.3-0.2
		c1.3-1.1,1.2-1.4,1.8-2.4"/>
	<path id="XMLID_78_" class="st7" d="M99.6,32.8c-0.2-1-0.7-1.7-0.8-2.1"/>
	<path id="XMLID_77_" class="st7" d="M93.9,36.2c0,0-1.2-0.7-0.9-1.9c0.1-0.5,1.4-1.8,1.4-3.4"/>
	<path id="XMLID_76_" class="st7" d="M93,34.3c-1.4,0.5-2.6,0.5-3.7-0.2"/>
	<path id="XMLID_75_" class="st7" d="M90.6,28c0.7,0,1.7-0.1,2,0.1"/>
	<path id="XMLID_74_" class="st8" d="M103.3,21.2c-0.4-0.1-0.8-0.3-0.8-0.3c0.2,0.8,0.6,1,0.2,1.8c-0.3,0.7-0.1-0.2,0.5-0.3
		c0.6-0.1,0.7,0.1,1,0.2c0.4,0.1-0.8-0.5,0.1-1.3C103.9,21.4,103.6,21.3,103.3,21.2z"/>
</g>
<g id="XMLID_48_">
	<g id="XMLID_60_">
		<path id="XMLID_71_" d="M7.4,13.2c0-1.5,0-2.9-0.1-3.5c-1.5,0-4.9,0.2-7.2,0.5c0.1-0.6,0.2-1.1,0.2-1.7c0-0.6-0.1-1.1-0.2-1.7
			c3.6,0.1,5.4,0.2,10.3,0.2c4.9,0,6.7-0.1,10-0.2c-0.1,0.6-0.2,1.1-0.2,1.7c0,0.6,0.1,1.1,0.2,1.7c-2.1-0.3-5.5-0.5-7-0.5
			c-0.1,0.6-0.1,2-0.1,3.5v9.9c0,4.4,0.1,7.5,0.3,11c-0.9-0.1-1.9-0.2-3.2-0.2C9,33.8,7.9,33.9,7,34c0.2-3.5,0.3-6.5,0.3-11V13.2z"
			/>
		<path id="XMLID_68_" d="M28.2,14.4c6.1,0,9.7,3.8,9.7,9.7c0,6.4-4,10.5-9.7,10.5c-4.7,0-9.7-2.6-9.7-9.6
			C18.5,17.8,23.2,14.4,28.2,14.4z M28.3,16.1c-2.4,0-3.9,2.8-3.9,8.8c0,4.4,0.9,7.8,3.9,7.8c2.5,0,3.8-3.2,3.8-9.3
			C32,18.9,30.9,16.1,28.3,16.1z"/>
		<path id="XMLID_66_" d="M51.7,15.1c-0.1,0.4-0.1,0.7-0.1,1.1c0,0.3,0,0.7,0.1,1L48.2,17c-0.2,2.4-0.3,6.7-0.3,8.8
			c0,5.5,0.4,6.4,2.2,6.4c1,0,1.3-0.1,1.8-0.4v1.6c-1,0.6-2.8,1-4.3,1c-3.3,0-5-2.1-5-6.1c0-3,0.3-8,0.3-11.3l-2.8,0
			c0.1-0.3,0.1-0.7,0.1-1c0-0.4,0-0.7-0.1-1.1l2.8,0.1c0-1.7,0-2.8-0.2-4.9c1.8-0.8,3.6-1.6,5.4-2.5l0.4,0.3c-0.2,1.7-0.4,4.6-0.4,7
			L51.7,15.1z"/>
		<path id="XMLID_63_" d="M54.7,17.1c2.1-1.8,4.9-2.8,7.4-2.8c4.2,0,7.2,1.8,7.2,6.4c0,3.4-0.1,6.1-0.1,9c0,2.5,0.7,2.7,2.3,2.7v0.9
			c-1.5,0.8-2.4,1.1-3.6,1.1c-1.9,0-3.1-1.1-3.8-2.9c-1.2,1.7-2.7,2.9-5.1,2.9c-4,0-5.7-2.7-5.7-5.2c0-3.4,2.3-4.9,5.9-5.8
			c4.4-1.1,4.8-1.4,4.8-2.8c0-1.9-1.4-3.4-3.8-3.4c-1.8,0-4,1.1-4.7,2.2h-0.3L54.7,17.1z M64.1,23.7c-2.3,1.3-5.2,1.1-5.2,5.1
			c0,1.9,0.9,3,2.3,3c1.7,0,2.9-1.3,2.9-3.9C64,25.6,64.1,24.6,64.1,23.7z"/>
		<path id="XMLID_61_" d="M75,17.8c0-5.2-0.1-9.2-0.3-13.7c0.7,0.1,1.8,0.2,3,0.2c1.1,0,2.3-0.1,3-0.2c-0.2,4.5-0.3,8.5-0.3,13.7
			v2.6c0,5.2,0.1,9.2,0.3,13.7c-0.7-0.1-1.8-0.2-3-0.2c-1.1,0-2.3,0.1-3,0.2c0.2-4.5,0.3-8.5,0.3-13.7V17.8z"/>
	</g>
	<g id="XMLID_49_">
		<path id="XMLID_58_" d="M140.6,14.6c-1.9,5.4-5.1,13.8-6.8,19.4c-0.7-0.1-1.3-0.2-2-0.2c-0.7,0-1.4,0.1-2.1,0.2
			c-1.7-6.9-7.4-25.6-7.9-27.3c1.1,0.1,2.3,0.2,3.3,0.2c1.1,0,2.1-0.1,3.2-0.2c1.6,6.8,3.7,14.4,5.2,20h0.1c2.3-6.6,5.7-16.3,6.8-20
			c0.7,0.1,1.3,0.2,2,0.2c0.7,0,1.3-0.1,2-0.2c0.7,3.5,4.8,14.8,6.2,20h0.1c2-6.6,5.1-16.8,5.9-20c0.6,0.1,1.1,0.2,1.7,0.2
			c0.6,0,1.2-0.1,1.8-0.2c-1.1,3-6.5,18.5-9,27.3c-0.7-0.1-1.3-0.2-2-0.2c-0.7,0-1.4,0.1-2.1,0.2C145.2,27.5,143.1,21.1,140.6,14.6
			L140.6,14.6z"/>
		<path id="XMLID_55_" d="M165.1,6.2c1.7,0,3.1,1.4,3.1,3.1c0,1.7-1.4,3.1-3.1,3.1c-1.7,0-3.1-1.4-3.1-3.1
			C162,7.6,163.3,6.2,165.1,6.2z M162.4,23.6c0-3.2-0.1-6-0.3-8.8c0.7,0.1,1.7,0.2,3,0.2c1.2,0,2.3-0.1,3-0.2
			c-0.2,2.8-0.3,5.6-0.3,8.8v1.6c0,3.2,0.1,6,0.3,8.8c-0.7-0.1-1.7-0.2-3-0.2c-1.2,0-2.3,0.1-3,0.2c0.2-2.8,0.3-5.6,0.3-8.8V23.6z"
			/>
		<path id="XMLID_53_" d="M178.2,17.8L178.2,17.8c1.5-2.1,3.6-3.5,6.1-3.5c4,0,6.2,2.2,6.2,7.3c0,2.7-0.2,4.6-0.2,6.6
			c0,1.7,0.1,3.7,0.2,5.7c-0.7-0.1-1.8-0.2-3-0.2c-1.1,0-2.3,0.1-3,0.2c0.4-2.8,0.4-6.6,0.4-11.4c0-3.3-1.2-4.8-3.2-4.8
			c-2.4,0-3.4,2.2-3.4,5.8v1.6c0,3.2,0.1,6,0.3,8.8c-0.7-0.1-1.7-0.2-3-0.2c-1.2,0-2.3,0.1-3,0.2c0.2-2.8,0.3-5.6,0.3-8.8v-1.6
			c0-3.2-0.1-6-0.3-8.8c0.9,0.1,1.9,0.2,2.8,0.2c0.9,0,1.9-0.1,2.9-0.2L178.2,17.8z"/>
		<path id="XMLID_50_" d="M199.7,24.4c0,4.3,1.7,7.5,5.3,7.5c1.8,0,3.4-0.6,4.9-1.8l0.5,0.4l-0.9,2.2c-1.3,1-3,1.8-6,1.8
			c-5.1,0-9.6-3.1-9.6-10c0-6.8,3.9-10.2,9.2-10.2c5.1,0,8.1,3.3,8.1,8.8c0,0.7,0,1,0,1.3H199.7z M205.8,22.7
			c-0.1-4-0.9-6.5-2.9-6.5c-2.3,0-3.1,3.4-3.2,6.5H205.8z"/>
	</g>
</g>
<g id="XMLID_23_">
	<g id="XMLID_35_">
		<path id="XMLID_46_" class="st9" d="M8.6,12.3c0-1.5,0-2.9-0.1-3.5C7,8.8,3.6,9.1,1.3,9.4c0.1-0.6,0.2-1.1,0.2-1.7
			c0-0.6-0.1-1.1-0.2-1.7C4.9,6,6.6,6.1,11.6,6.1c4.9,0,6.7-0.1,10-0.2c-0.1,0.6-0.2,1.1-0.2,1.7c0,0.6,0.1,1.1,0.2,1.7
			c-2.1-0.3-5.5-0.5-7-0.5c-0.1,0.6-0.1,2-0.1,3.5v9.9c0,4.4,0.1,7.5,0.3,11c-0.9-0.1-1.9-0.2-3.2-0.2c-1.3,0-2.4,0.1-3.2,0.2
			c0.2-3.5,0.3-6.5,0.3-11V12.3z"/>
		<path id="XMLID_43_" class="st9" d="M29.5,13.5c6.1,0,9.7,3.8,9.7,9.7c0,6.4-4,10.5-9.7,10.5c-4.7,0-9.7-2.6-9.7-9.6
			C19.8,17,24.5,13.5,29.5,13.5z M29.5,15.3c-2.4,0-3.9,2.8-3.9,8.8c0,4.4,0.9,7.8,3.9,7.8c2.5,0,3.8-3.2,3.8-9.3
			C33.3,18.1,32.2,15.3,29.5,15.3z"/>
		<path id="XMLID_41_" class="st9" d="M53,14.2c-0.1,0.4-0.1,0.7-0.1,1.1c0,0.3,0,0.7,0.1,1l-3.5-0.1c-0.2,2.4-0.3,6.7-0.3,8.8
			c0,5.5,0.4,6.4,2.2,6.4c1,0,1.3-0.1,1.8-0.4v1.6c-1,0.6-2.8,1-4.3,1c-3.3,0-5-2.1-5-6.1c0-3,0.3-8,0.3-11.3l-2.8,0
			c0.1-0.3,0.1-0.7,0.1-1c0-0.4,0-0.7-0.1-1.1l2.8,0.1c0-1.7,0-2.8-0.2-4.9c1.8-0.8,3.6-1.6,5.4-2.5l0.4,0.3c-0.2,1.7-0.4,4.6-0.4,7
			L53,14.2z"/>
		<path id="XMLID_38_" class="st9" d="M55.9,16.3c2.1-1.8,4.9-2.8,7.4-2.8c4.2,0,7.2,1.8,7.2,6.4c0,3.4-0.1,6.1-0.1,9
			c0,2.5,0.7,2.7,2.3,2.7v0.9c-1.5,0.8-2.4,1.1-3.6,1.1c-1.9,0-3.1-1.1-3.8-2.9c-1.2,1.7-2.7,2.9-5.1,2.9c-4,0-5.7-2.7-5.7-5.2
			c0-3.4,2.3-4.9,5.9-5.8c4.4-1.1,4.8-1.4,4.8-2.8c0-1.9-1.4-3.4-3.8-3.4c-1.8,0-4,1.1-4.7,2.2h-0.3L55.9,16.3z M65.3,22.9
			c-2.3,1.3-5.2,1.1-5.2,5.1c0,1.9,0.9,3,2.3,3c1.7,0,2.9-1.3,2.9-3.9C65.3,24.7,65.3,23.8,65.3,22.9z"/>
		<path id="XMLID_36_" class="st9" d="M76.3,16.9c0-5.2-0.1-9.2-0.3-13.7c0.7,0.1,1.8,0.2,3,0.2c1.1,0,2.3-0.1,3-0.2
			c-0.2,4.5-0.3,8.5-0.3,13.7v2.6c0,5.2,0.1,9.2,0.3,13.7c-0.7-0.1-1.8-0.2-3-0.2c-1.1,0-2.3,0.1-3,0.2c0.2-4.5,0.3-8.5,0.3-13.7
			V16.9z"/>
	</g>
	<g id="XMLID_24_">
		<path id="XMLID_33_" class="st9" d="M141.9,13.8c-1.9,5.4-5.1,13.8-6.8,19.4c-0.7-0.1-1.3-0.2-2-0.2c-0.7,0-1.4,0.1-2.1,0.2
			c-1.7-6.9-7.4-25.6-7.9-27.3c1.1,0.1,2.3,0.2,3.3,0.2c1.1,0,2.1-0.1,3.2-0.2c1.6,6.8,3.7,14.4,5.2,20h0.1c2.3-6.6,5.7-16.3,6.8-20
			c0.7,0.1,1.3,0.2,2,0.2s1.3-0.1,2-0.2c0.7,3.5,4.8,14.7,6.2,20h0.1c2-6.6,5.1-16.8,5.9-20c0.6,0.1,1.1,0.2,1.7,0.2
			c0.6,0,1.2-0.1,1.8-0.2c-1.1,3-6.5,18.5-9,27.3c-0.7-0.1-1.3-0.2-2-0.2c-0.7,0-1.4,0.1-2.1,0.2C146.5,26.7,144.3,20.2,141.9,13.8
			L141.9,13.8z"/>
		<path id="XMLID_30_" class="st9" d="M166.3,5.4c1.7,0,3.1,1.4,3.1,3.1c0,1.7-1.4,3.1-3.1,3.1c-1.7,0-3.1-1.4-3.1-3.1
			C163.2,6.7,164.6,5.4,166.3,5.4z M163.7,22.8c0-3.2-0.1-6-0.3-8.8c0.7,0.1,1.7,0.2,3,0.2c1.2,0,2.3-0.1,3-0.2
			c-0.2,2.8-0.3,5.6-0.3,8.8v1.6c0,3.2,0.1,6,0.3,8.8c-0.7-0.1-1.7-0.2-3-0.2c-1.2,0-2.3,0.1-3,0.2c0.2-2.8,0.3-5.6,0.3-8.8V22.8z"
			/>
		<path id="XMLID_28_" class="st9" d="M179.5,17L179.5,17c1.5-2.1,3.6-3.5,6-3.5c4,0,6.2,2.2,6.2,7.3c0,2.7-0.2,4.6-0.2,6.6
			c0,1.7,0.1,3.7,0.2,5.7c-0.7-0.1-1.8-0.2-3-0.2c-1.1,0-2.3,0.1-3,0.2c0.4-2.8,0.4-6.6,0.4-11.3c0-3.3-1.2-4.8-3.2-4.8
			c-2.4,0-3.4,2.2-3.4,5.8v1.6c0,3.2,0.1,6,0.3,8.8c-0.7-0.1-1.7-0.2-3-0.2c-1.2,0-2.3,0.1-3,0.2c0.2-2.8,0.3-5.6,0.3-8.8v-1.6
			c0-3.2-0.1-6-0.3-8.8c0.9,0.1,1.9,0.2,2.8,0.2c0.9,0,1.9-0.1,2.9-0.2L179.5,17z"/>
		<path id="XMLID_25_" class="st9" d="M201,23.6c0,4.3,1.7,7.5,5.3,7.5c1.8,0,3.4-0.6,4.9-1.8l0.5,0.4l-0.9,2.2c-1.3,1-3,1.8-6,1.8
			c-5.1,0-9.6-3.1-9.6-10c0-6.8,3.9-10.2,9.2-10.2c5.1,0,8.1,3.3,8.1,8.8c0,0.7,0,1,0,1.3H201z M207.1,21.8c-0.1-4-0.9-6.5-2.9-6.5
			c-2.3,0-3.1,3.4-3.2,6.5H207.1z"/>
	</g>
</g>
<g id="XMLID_8_">
	<path id="XMLID_19_" class="st10" d="M125.1,43.9c-0.3,0.5-0.7,0.9-1.1,1.4c0.1,0.1,0.4,0.4,1,0.9l-1.8,1.8
		c-0.2-0.2-0.5-0.4-0.9-0.7c-0.1-0.1-0.2-0.2-0.3-0.2c-0.6,0.4-1.2,0.7-1.8,0.8c-0.5,0.1-1.1,0.2-1.9,0.2c-1.5,0-2.7-0.3-3.4-0.9
		c-0.7-0.6-1.1-1.4-1.1-2.2c0-1.6,1.1-2.8,3.2-3.6c-0.4-0.7-0.6-1.4-0.6-2c0-0.9,0.4-1.6,1.1-2.1c0.7-0.5,1.6-0.7,2.7-0.7
		c1.1,0,1.9,0.2,2.6,0.7c0.6,0.5,1,1.1,1,1.8c0,0.4-0.1,0.8-0.3,1.2c-0.2,0.3-0.5,0.6-0.9,0.9c-0.4,0.3-0.8,0.5-1.4,0.8
		c0,0-0.2,0.1-0.4,0.2l1.4,1.7c0.2-0.3,0.5-0.6,0.8-0.9c0.1-0.1,0.1-0.2,0.2-0.2L125.1,43.9z M120.3,45.2c-0.8-0.8-1.5-1.6-1.9-2.2
		c-0.9,0.5-1.4,1-1.4,1.6c0,0.2,0.1,0.4,0.2,0.6c0.1,0.2,0.3,0.4,0.5,0.5c0.2,0.1,0.5,0.2,0.8,0.2C119,46,119.6,45.7,120.3,45.2z
		 M119.7,40.2c0.5-0.2,0.9-0.5,1.1-0.8s0.4-0.5,0.4-0.7c0-0.2-0.1-0.3-0.3-0.5c-0.2-0.1-0.4-0.2-0.6-0.2c-0.3,0-0.6,0.1-0.8,0.3
		c-0.2,0.2-0.3,0.5-0.3,0.7C119.3,39.3,119.4,39.7,119.7,40.2z"/>
	<path id="XMLID_17_" class="st10" d="M146.7,36.5l-2.4,11.3h-2.9l2.1-8.6h0l-4.2,8.6h-2.6l-0.5-8.6h0l-1.6,8.6h-2.9l2.4-11.3h4.2
		l0.4,7.2h0l3.6-7.2H146.7z"/>
	<path id="XMLID_14_" class="st10" d="M154,36.3c1.7,0,3,0.5,3.8,1.4c0.8,0.9,1.2,2.1,1.2,3.4c0,0.5-0.1,1.1-0.2,1.8
		c-0.1,0.7-0.4,1.4-0.9,2.1c-0.4,0.7-1,1.3-1.7,1.8c-0.7,0.5-1.3,0.8-2,1c-0.6,0.2-1.3,0.3-2,0.3c-1.6,0-2.9-0.4-3.8-1.2
		c-0.9-0.8-1.4-2-1.4-3.4c0-0.8,0.1-1.5,0.3-2.3c0.2-0.7,0.6-1.4,1-2.1c0.4-0.6,1-1.2,1.6-1.6c0.6-0.4,1.3-0.7,1.9-0.9
		C152.7,36.4,153.3,36.3,154,36.3z M152.5,45.4c0.7,0,1.2-0.3,1.7-0.8c0.5-0.5,0.8-1.1,1-1.9c0.2-0.8,0.3-1.3,0.3-1.7
		c0-0.7-0.2-1.3-0.5-1.6c-0.4-0.4-0.8-0.6-1.4-0.6c-0.6,0-1.2,0.2-1.6,0.7c-0.5,0.5-0.8,1.1-1,1.9c-0.2,0.8-0.3,1.4-0.3,2
		c0,0.6,0.2,1.1,0.5,1.4C151.4,45.2,151.9,45.4,152.5,45.4z"/>
	<path id="XMLID_11_" class="st10" d="M161.9,36.5h6.4c1.1,0,1.9,0.3,2.4,0.9c0.5,0.6,0.8,1.3,0.8,2.1c0,0.9-0.3,1.7-0.8,2.3
		c-0.5,0.7-1.4,1.1-2.6,1.3c0.7,0.6,1.6,2.2,2.5,4.7h-3.7c-0.3-0.8-0.7-1.7-1.1-2.7c-0.4-1-0.7-1.5-0.9-1.7
		c-0.2-0.2-0.5-0.2-0.7-0.2H164l-1,4.6h-3.5L161.9,36.5z M164.4,41.1h0.7c1.1,0,1.8-0.1,2.1-0.2s0.6-0.3,0.7-0.5
		c0.2-0.2,0.2-0.5,0.2-0.7c0-0.3-0.1-0.5-0.3-0.7c-0.2-0.2-0.6-0.2-1.2-0.2h-1.8L164.4,41.1z"/>
	<path id="XMLID_9_" class="st10" d="M183.3,36.5l-0.5,2.4H177l-0.4,1.8h5.5l-0.5,2.3h-5.5l-0.5,2.2h6.2l-0.6,2.6h-9.7l2.4-11.3
		H183.3z"/>
</g>
<g id="XMLID_2_">
	<path id="XMLID_3_" d="M216,13.5c1.3,0,2.4,1.1,2.4,2.4c0,1.3-1,2.4-2.4,2.4c-1.3,0-2.4-1.1-2.4-2.4
		C213.6,14.5,214.7,13.5,216,13.5L216,13.5z M216,13.9c-1,0-1.8,0.9-1.8,1.9c0,1.1,0.8,1.9,1.8,1.9c1,0,1.8-0.8,1.8-1.9
		C217.8,14.8,217,13.9,216,13.9L216,13.9z M215.6,17.2H215v-2.6c0.2,0,0.4-0.1,0.8-0.1c0.5,0,0.7,0.1,0.9,0.2
		c0.1,0.1,0.2,0.3,0.2,0.6c0,0.3-0.2,0.5-0.5,0.6v0c0.2,0,0.4,0.3,0.4,0.6c0.1,0.4,0.1,0.6,0.1,0.7h-0.6c-0.1-0.1-0.1-0.3-0.2-0.7
		c0-0.3-0.2-0.4-0.5-0.4h-0.3V17.2z M215.6,15.7h0.3c0.3,0,0.6-0.1,0.6-0.4c0-0.2-0.2-0.4-0.5-0.4c-0.1,0-0.2,0-0.3,0V15.7z"/>
</g>
</svg>
