<?xml version="1.0" encoding="utf-8"?>
<!-- Generator: Adobe Illustrator 18.0.0, SVG Export Plug-In . SVG Version: 6.00 Build 0)  -->
<!DOCTYPE svg PUBLIC "-//W3C//DTD SVG 1.1//EN" "http://www.w3.org/Graphics/SVG/1.1/DTD/svg11.dtd">
<svg version="1.1" id="Layer_1" xmlns="http://www.w3.org/2000/svg" xmlns:xlink="http://www.w3.org/1999/xlink" x="0px" y="0px"
	 viewBox="0 0 450.5 164.5" enable-background="new 0 0 450.5 164.5" xml:space="preserve">
<g>
	<g>
		<path fill="#B6944B" d="M3.9,52.9C126.8,17.3,255.1,1.5,383,6C404,6.7,424.8,8,445.7,9.8c0.8,0.1,3.7-1.6,2.8-1.7
			C323.1-2.8,196.2,6,73.5,33.8C50.6,39,27.8,44.9,5.3,51.4C4.5,51.7,1.6,53.6,3.9,52.9L3.9,52.9z"/>
	</g>
</g>
<g>
	<g>
		<path fill="#B6944B" d="M144.3,23.7c0.1,0.1,0.3,0.2,0.4,0.3c0.7,0.4,1.8-0.1,2.3-0.6c2.3-2,0.8-4.8-2.1-3
			c-2.7,1.7-4.3,4.6-6.2,7.1c-3.2,4.2-6.4,8.5-9.6,12.7c-12.8,17-25.6,34-38.4,51c-1.3,1.7,2.3,0.8,3-0.2
			c8.4-11.2,16.8-22.3,25.2-33.5c4.4-5.8,8.8-11.7,13.2-17.5c2-2.7,4-5.3,6-8c2.2-2.9,4.4-7.4,7.1-9.8c0.8-0.2,1.6-0.4,2.3-0.6
			c-0.1-0.1-0.3-0.2-0.4-0.3C146.1,20.8,143.1,22.9,144.3,23.7L144.3,23.7z"/>
	</g>
</g>
<g>
	<g>
		<path fill="#B6944B" d="M123.3,76c-3.2,0.7-5.6,2.1-7.7,4.6c-1.3,1.5,0.9,2.7,2.2,2.1c8.8-3.7,17.5-7.8,26.2-11.7
			c-0.7-0.7-1.5-1.4-2.2-2.1c-23.6,30.6-47.1,61.3-70.7,91.9c-1.4,1.9,1.8,3.1,3,1.6c23.6-30.6,47.1-61.3,70.7-91.9
			c1.2-1.5-0.8-2.8-2.2-2.1c-8.7,3.9-17.4,8-26.2,11.7c0.7,0.7,1.5,1.4,2.2,2.1c1.4-1.7,3.1-2.8,5.3-3.3
			C126,78.4,125.6,75.4,123.3,76L123.3,76z"/>
	</g>
</g>
<g>
	<g>
		<path fill="#B6944B" d="M141.6,84.6c20.8-14.3,37-34.3,46.7-57.6c0.2-0.5-3.1,0.3-3.5,0.8c-14.8,17-28.2,35.2-40.1,54.3
			c-0.1,0.1,3,0,3.5-0.8c11.9-19.1,25.3-37.3,40.1-54.3c-1.2,0.3-2.4,0.5-3.5,0.8C175,51,159,70.9,138.3,85.1
			C137.8,85.5,140.9,85.1,141.6,84.6L141.6,84.6z"/>
	</g>
</g>
<g>
	<g>
		<path fill="#B6944B" d="M156.4,72.7c23.8,3.6,48.1-2.2,71.6,3.6c2.2,0.5,0.8-2.7-0.7-3.1c-23.5-5.8-47.8,0-71.6-3.6
			C153.5,69.3,154.9,72.5,156.4,72.7L156.4,72.7z"/>
	</g>
</g>
<g>
	<g>
		<path fill="#B6944B" d="M303.9,33.8c-25.6,37.5-46.6,77.7-70.4,116.3c-0.5,0.8,2.6-0.5,3.1-1.2c23.8-38.6,44.8-78.8,70.4-116.3
			C307.4,31.8,304.3,33.1,303.9,33.8L303.9,33.8z"/>
	</g>
</g>
<g>
	<g>
		<path fill="#B6944B" d="M303.7,37.9c7.1-7.5,16.6-11.1,26.9-10.7c0.3,0,4.8,0,3.3,1.6c-1.6,1.8-3.3,3.6-4.9,5.4
			c-2.9,3.1-5.9,6.2-8.9,9.3c-12.4,12.6-25.7,24.2-39.6,34.9c-1.3,1,2.2-0.2,2.6-0.6c19.9-15.4,38.4-32.6,55.1-51.4
			c0.1-0.1,0.3-0.3,0-0.4c-13.8-2.4-28.1,2.7-37.7,12.9C300.1,39.4,303.2,38.4,303.7,37.9L303.7,37.9z"/>
	</g>
</g>
<g>
	<g>
		<path fill="#B6944B" d="M299.6,61.7c-4.9,7.2-11.7,17.8-6.1,26.6c5.5,8.5,16.8,5.4,23.5,11.9c0.7,0.7,3.7,0.2,3.6,0.1
			c-6.1-6-15.8-3.9-21.9-9.8c-8.5-8.1-0.4-21.2,4.6-28.5C303.3,62.1,300.2,60.9,299.6,61.7L299.6,61.7z"/>
	</g>
</g>
<g>
	<g>
		<path fill="#B6944B" d="M305.8,69.7c-1.1,1-2.2,1.9-3.3,2.9c-1.2,1,2.2,1.8,2.7,1.8c9.5-0.9,17-6.3,23.9-12.5
			c8.3-7.5,15.7-15.9,22.6-24.6c0.9-1.1-2.5-2.5-3.3-1.5c-10,12-20,24.1-29.9,36.1c-0.9,1.1,2.5,2.5,3.3,1.5
			c10-12,20-24.1,29.9-36.1c-1.1-0.5-2.2-1-3.3-1.5c-6.3,7.9-13.1,15.4-20.3,22.4c-7,6.8-15,13.2-25.1,14.2c0.9,0.6,1.8,1.2,2.7,1.8
			c1.1-1,2.2-1.9,3.3-2.9C310.1,70.4,306.8,68.9,305.8,69.7L305.8,69.7z"/>
	</g>
</g>
<g>
	<g>
		<path fill="#B6944B" d="M338.8,72.4c13.8-8.4,25.3-19.7,33.8-33.5c0.3-0.4-2.8,0.3-3.3,0.9c-10.2,12.4-18.7,26-25.5,40.6
			c-0.2,0.4,3-0.1,3.5-1.1c6.7-14.4,15.1-27.9,25.2-40.2c-1.1,0.3-2.2,0.6-3.3,0.9c-8.1,13.2-19.1,24.2-32.4,32.2
			C334.6,73.4,338,72.9,338.8,72.4L338.8,72.4z"/>
	</g>
</g>
<g>
	<g>
		<path fill="#B6944B" d="M350.9,62.4c4.1,0.4,8.2,0.5,12.3,0c-0.6-1-1.3-1.9-1.9-2.9c-1,1.9-2,3.8-3.1,5.7c-0.5,1,0.6,2.6,1.5,2.9
			c23.2,6.4,47.2,9.5,71.3,9.2c1.8,0,0.5-3.5-1.1-3.5c-23.9,0.3-47.6-2.8-70.6-9.2c0.5,1,1,1.9,1.5,2.9c1-1.9,2-3.8,3.1-5.7
			c0.6-1-0.7-3-1.9-2.9c-3.9,0.4-7.7,0.5-11.6,0.1C348.4,58.7,349.4,62.2,350.9,62.4L350.9,62.4z"/>
	</g>
</g>
</svg>
